<svg id="Group_46" data-name="Group 46" xmlns="http://www.w3.org/2000/svg" width="100" height="100" viewBox="0 0 100 100">
  <path id="Path_191" data-name="Path 191" d="M365.7,705.018c0,3.844-20.778,6.961-46.41,6.961s-46.41-3.117-46.41-6.961c0-2.722,10.415-5.08,25.594-6.223,6.259-.473,13.332-.738,20.816-.738,3.077,0,6.083.045,8.99.13C349.611,698.816,365.7,701.635,365.7,705.018Z" transform="translate(-272.882 -609.862)" fill="#3f3d56"/>
  <ellipse id="Ellipse_53" data-name="Ellipse 53" cx="17.815" cy="2.171" rx="17.815" ry="2.171" transform="translate(22.606 92.238)" opacity="0.1"/>
  <ellipse id="Ellipse_54" data-name="Ellipse 54" cx="16.842" cy="17.965" rx="16.842" ry="17.965" transform="translate(23.504 60.05)" fill="#3f3d56"/>
  <rect id="Rectangle_31" data-name="Rectangle 31" width="10.48" height="9.581" transform="translate(35.182 88.645)" fill="#00b9ff"/>
  <path id="Path_192" data-name="Path 192" d="M393.1,607.614l-.6,3.294,3.892.6,2.545-1.5-.15-2.4Z" transform="translate(-333.739 -516.649)" fill="#575a89"/>
  <path id="Path_193" data-name="Path 193" d="M531.607,303.063s-.3,3.443-1.048,3.593,1.647,6.138,1.647,6.138H535.8l2.844-.749-1.347-3.294s-1.8-2.4-.449-4.342S531.607,303.063,531.607,303.063Z" transform="translate(-491.859 -273.928)" fill="#a0616a"/>
  <path id="Path_194" data-name="Path 194" d="M531.607,303.063s-.3,3.443-1.048,3.593,1.647,6.138,1.647,6.138H535.8l2.844-.749-1.347-3.294s-1.8-2.4-.449-4.342S531.607,303.063,531.607,303.063Z" transform="translate(-491.859 -273.928)" opacity="0.1"/>
  <path id="Path_195" data-name="Path 195" d="M477.164,476.156s-3.892,7.485-.749,8.983,3.892,1.347,3.892,1.8-.6.3-.3,1.048-.6,3.743.3,5.539a5.122,5.122,0,0,1,.6,3.144,2.419,2.419,0,0,0,.3.749c.3.6.449,1.048.3,1.347s-1.048,2.246-.15,2.695,5.539.749,5.988,0-.449-1.2,0-1.647.749-.6.449-.9-.6-4.042-.6-4.042.749-4.342.449-4.94-.749-1.2-.449-1.647.6-.3.749-.9.449-1.946.449-1.946l1.647-.15,3.892.749s4.342,4.791,9.132,6.288c0,0,1.347,1.347,1.8,1.347s.449,0,.3.3-.6.3-.3.6.749-.15.449.3-.6.449-.3.749-.15,1.946-.15,2.1-1.347,14.222-.9,14.522,6.737,1.2,7.186,0a3.945,3.945,0,0,0-.3-2.695s2.246-17.965,1.647-19.163-2.695-6.587-13.923-10.03c0,0-3.144-.6-3.144-1.048s-.3-3.294-.9-3.443-4.042-.3-4.042-.3l-4.342,1.347-5.988-1.048Z" transform="translate(-444.902 -420.672)" fill="#2f2e41"/>
  <path id="Path_196" data-name="Path 196" d="M517.843,645.006l-.749,2.695s-.6,4.342.15,5.39a4.709,4.709,0,0,0,3.585,2.008,2.406,2.406,0,0,0,2.512-1.664.752.752,0,0,0,.042-.194c0-.3-.449-3.892-.449-3.892l-.749-3.743-.15-1.048Z" transform="translate(-480.341 -564.371)" fill="#2f2e41"/>
  <path id="Path_197" data-name="Path 197" d="M662.542,725.688s-.749-.749-.9,0-.749,3.892.3,4.042,11.078,1.647,12.126,1.048,2.994-1.5,1.8-1.946-4.641-1.8-4.641-1.8a30.441,30.441,0,0,0-2.246-2.695,4.332,4.332,0,0,0-2.695.748C665.536,725.688,662.542,725.688,662.542,725.688Z" transform="translate(-603.183 -632.178)" fill="#2f2e41"/>
  <circle id="Ellipse_55" data-name="Ellipse 55" cx="4.641" cy="4.641" r="4.641" transform="translate(38.7 22.997)" fill="#a0616a"/>
  <path id="Path_198" data-name="Path 198" d="M493.626,329.637l-1.8-1.946-1.991-3.892s-1.452-.449-1.751.3-5.689,3.144-5.689,3.144,1.347,12.576.749,13.773S481.5,347,482.4,347.452s5.09,0,6.438.6,5.24.6,6.288-.15,1.347-1.347,2.4-.9c.892.382,2.978-12.689,3.578-16.585a1.773,1.773,0,0,0-.735-1.723c-1.343-.942-3.763-2.566-4.191-2.352C495.572,326.643,493.626,329.637,493.626,329.637Z" transform="translate(-450.734 -291.519)" fill="#575a89"/>
  <path id="Path_199" data-name="Path 199" d="M589.186,359.557h0a1.775,1.775,0,0,1,1.334,1.526l1.211,10.9s-2.994,6.438-4.491,2.1S589.186,359.557,589.186,359.557Z" transform="translate(-539.857 -322.038)" fill="#575a89"/>
  <path id="Path_200" data-name="Path 200" d="M586.718,444.455l3.294-.9s.6,4.192,1.2,4.192-2.1,2.4-3.443,2.1-3.294-1.347-3.443-2.1,1.347-3.892,1.347-3.892Z" transform="translate(-537.688 -393.462)" fill="#575a89"/>
  <path id="Path_201" data-name="Path 201" d="M521.753,250.351c.316-.7.261-1.508.522-2.226a2.654,2.654,0,0,1,4.035-1.255c.336.239.672.576,1.082.53.441-.049.835-.541,1.24-.361.45.2.328,1.006.784,1.192a.576.576,0,0,0,.661-.272,1.68,1.68,0,0,0,.192-.745,3.565,3.565,0,0,0-.157-1.893,4.533,4.533,0,0,1-.3-.612,2.1,2.1,0,0,1-.058-.6,4.327,4.327,0,0,0-.435-2.182,3.164,3.164,0,0,0-2-1.381,7.638,7.638,0,0,0-2.485-.1,7.136,7.136,0,0,0-3.883,1.218,1.519,1.519,0,0,0-.373.392,2.025,2.025,0,0,0-.2.575,11.894,11.894,0,0,1-1.043,2.736,5.937,5.937,0,0,0-.538,1.163,1.5,1.5,0,0,0,.133,1.237,4.729,4.729,0,0,0,.753.678c.243.234.357.683.626.86.235.155.517.045.757.209C521.368,249.721,521.391,250.182,521.753,250.351Z" transform="translate(-481.916 -220.711)" fill="#2f2e41"/>
  <path id="Path_202" data-name="Path 202" d="M564.382,373.455l.449-.9s6.587,1.946,7.935,3.743c0,0,3.294-2.1,5.09-1.8l1.8.3-5.539,4.94-7.036-.6Z" transform="translate(-520.742 -333.092)" fill="#f2f2f2"/>
  <path id="Path_203" data-name="Path 203" d="M527.52,372.557l-6.138,8.533,8.833,4.342a1.518,1.518,0,0,0,1.461,0l5.875-2.695,5.539-7.935-5.539,2.844a1.311,1.311,0,0,0-1.8-.6Z" transform="translate(-484.179 -333.092)" fill="#00b9ff"/>
  <path id="Path_204" data-name="Path 204" d="M621.131,425.26l1.2-3.144s2.695-3.443,1.2-5.09-3.144,4.791-3.144,4.791Z" transform="translate(-568.358 -370.674)" fill="#a0616a"/>
  <path id="Path_205" data-name="Path 205" d="M533.079,433.334l2.613-2.119s4.059-1.627,3.59-3.8-5.123,2.567-5.123,2.567Z" transform="translate(-494.125 -379.25)" fill="#a0616a"/>
  <path id="Path_206" data-name="Path 206" d="M469.556,363.455h-.15s-2.321-2.77-2.77.973-1.946,16.169,1.946,16.618a9.465,9.465,0,0,0,6.662-1.871s2.844-4.342,1.8-4.342a28.157,28.157,0,0,0-3.144-.15c-1.342.083-2.547.461-2.47.075C471.577,374.009,473.748,364.5,469.556,363.455Z" transform="translate(-437.069 -324.513)" opacity="0.1"/>
  <path id="Path_207" data-name="Path 207" d="M465.08,347.856l-.6-.3s-2.4.449-2.844,4.192-1.946,16.169,1.946,16.618a35.92,35.92,0,0,0,9.132-.6s1.048-5.689,0-5.689-6.437.749-6.288,0S469.272,348.9,465.08,347.856Z" transform="translate(-432.818 -311.834)" fill="#575a89"/>
  <path id="Path_208" data-name="Path 208" d="M338,338.743l1.651-2.53,1.044,4.177-2.695,1.2Z" transform="translate(-287.398 -285.879)" fill="#575a89"/>
  <circle id="Ellipse_56" data-name="Ellipse 56" cx="4.042" cy="4.042" r="4.042" transform="translate(12.646 8.7)" fill="#f2f2f2"/>
  <rect id="Rectangle_32" data-name="Rectangle 32" width="9.581" height="9.581" transform="translate(11.898 42.834)" fill="#f2f2f2"/>
  <path id="Path_209" data-name="Path 209" d="M344.453,0l2.425,4.2L349.3,8.4h-9.7l2.425-4.2Z" transform="translate(-288.761)" fill="#f2f2f2"/>
  <path id="Path_210" data-name="Path 210" d="M822.227,209.412a7.4,7.4,0,0,1-1.309,4.309,3.569,3.569,0,0,1-2.9,1.621,2.906,2.906,0,0,1-2.4-1.587,9.114,9.114,0,0,1-1.032-4.881q0-.728.035-1.387t.087-1.249l.607-5.705H811.3q-1.04,10.821-1.708,12.876t-2.263,2.055a1.913,1.913,0,0,1-1.283-.538,1.806,1.806,0,0,1-.607-1.422,4.067,4.067,0,0,1,1.257-2.228,5.079,5.079,0,0,0,1.4-2.61l1.04-8.133h-1.682a2.98,2.98,0,0,0-1.361.338,2.569,2.569,0,0,0-.98.789l-.746,1.11h-.607a10.491,10.491,0,0,1,2.09-3.962,3.8,3.8,0,0,1,2.853-1.327H821.95v3.052h-4.474q-.208,2.081-.321,4.162t-.113,4.179a3.762,3.762,0,0,0,.659,2.306,1.984,1.984,0,0,0,1.647.884,2.169,2.169,0,0,0,1.275-.494,1.792,1.792,0,0,0,.754-1.292q.052-.381.078-.6t.026-.269Z" transform="translate(-724.282 -184.226)" fill="#00b9ff"/>
  <path id="Path_211" data-name="Path 211" d="M822.227,209.412a7.4,7.4,0,0,1-1.309,4.309,3.569,3.569,0,0,1-2.9,1.621,2.906,2.906,0,0,1-2.4-1.587,9.114,9.114,0,0,1-1.032-4.881q0-.728.035-1.387t.087-1.249l.607-5.705H811.3q-1.04,10.821-1.708,12.876t-2.263,2.055a1.913,1.913,0,0,1-1.283-.538,1.806,1.806,0,0,1-.607-1.422,4.067,4.067,0,0,1,1.257-2.228,5.079,5.079,0,0,0,1.4-2.61l1.04-8.133h-1.682a2.98,2.98,0,0,0-1.361.338,2.569,2.569,0,0,0-.98.789l-.746,1.11h-.607a10.491,10.491,0,0,1,2.09-3.962,3.8,3.8,0,0,1,2.853-1.327H821.95v3.052h-4.474q-.208,2.081-.321,4.162t-.113,4.179a3.762,3.762,0,0,0,.659,2.306,1.984,1.984,0,0,0,1.647.884,2.169,2.169,0,0,0,1.275-.494,1.792,1.792,0,0,0,.754-1.292q.052-.381.078-.6t.026-.269Z" transform="translate(-724.282 -184.226)" opacity="0.1"/>
  <path id="Path_212" data-name="Path 212" d="M822.227,205.793a7.4,7.4,0,0,1-1.309,4.309,3.569,3.569,0,0,1-2.9,1.621,2.906,2.906,0,0,1-2.4-1.587,9.114,9.114,0,0,1-1.032-4.881q0-.728.035-1.387t.087-1.249l.607-5.705H811.3q-1.04,10.821-1.708,12.876t-2.263,2.055a1.913,1.913,0,0,1-1.283-.538,1.806,1.806,0,0,1-.607-1.422,4.067,4.067,0,0,1,1.257-2.228,5.079,5.079,0,0,0,1.4-2.61l1.04-8.133h-1.682a2.98,2.98,0,0,0-1.361.338,2.568,2.568,0,0,0-.98.789l-.746,1.11h-.607a10.491,10.491,0,0,1,2.09-3.962,3.8,3.8,0,0,1,2.853-1.327H821.95v3.052h-4.474q-.208,2.081-.321,4.162t-.113,4.179a3.762,3.762,0,0,0,.659,2.306,1.984,1.984,0,0,0,1.647.884,2.169,2.169,0,0,0,1.275-.494,1.792,1.792,0,0,0,.754-1.292q.052-.381.078-.6t.026-.269Z" transform="translate(-724.282 -181.149)" fill="#00b9ff"/>
</svg>
