<svg id="Group_40" data-name="Group 40" xmlns="http://www.w3.org/2000/svg" width="100" height="100" viewBox="0 0 119.98 102.023">
  <ellipse id="Ellipse_1" data-name="Ellipse 1" cx="38.926" cy="7.588" rx="38.926" ry="7.588" transform="translate(1.123 86.846)" fill="#3f3d56"/>
  <path id="Path_1" data-name="Path 1" d="M181.991,660.056s-7.217-1.941-8.579-1.8,2.063-6.655,4.344-5.826,5.322,3.01,7.06-.07,2.714-4.739,4.831-4.573,5.051-1.325,7.167,0,3.6,2.96,6.526,2.889,5.694-6.7,7.971-4.049,5.007,5.08,7.147,4.2,4.583.444,6.537,1.936,5.377.829,6.679-.332a5.76,5.76,0,0,1,5.051-1.827c2.768.163,11.567,2.156,14.826,4.637s-4.236,5.638-7.82,5.638-4.235.995-7.331,2.487-8.151-.829-11.73,1.658-8.151-1.327-14.334,0-4.888,3.149-8.472,1.827-2.281-1.827-7.494-2.156-10.915.829-11.4-1.327-3.744-2.653-5.7-3.316S181.991,660.056,181.991,660.056Z" transform="translate(-173.101 -567.449)" fill="#3f3d56"/>
  <path id="Path_2" data-name="Path 2" d="M856.078,520.341l.281-.18.083-.053a2.747,2.747,0,0,1-.281-5.354l-.014,1.133.622-1.232h0a2.749,2.749,0,0,1,2.874,2.618v.156a3.275,3.275,0,0,0,.542-.8,4.706,4.706,0,0,0,.249-2.063c-.042-1.6-.111-3.217-.2-4.827a2.746,2.746,0,0,1-2.441-2.6,2.45,2.45,0,0,1,0-.249v-.062a1.5,1.5,0,0,1,.025-.238.357.357,0,0,1,0-.038c.01-.066.024-.131.039-.2a.339.339,0,0,1,.018-.072c.02-.07.041-.141.066-.208.008-.023.017-.044.027-.066.02-.051.041-.1.063-.149.011-.025.022-.052.035-.077l.01-.02h0a2.75,2.75,0,0,1,3.232-1.394l-.018,1.474.616-1.217a2.744,2.744,0,0,1,1.372,2.248,2.692,2.692,0,0,1-.06.71h0a.288.288,0,0,1-.016.058c0,.02-.018.073-.028.108s-.027.091-.042.141-.023.067-.035.1-.041.1-.062.141c-.013.027-.024.055-.036.083-.035.07-.073.141-.114.208-.014.024-.031.046-.045.069l-.091.141a.549.549,0,0,1-.062.079c-.021.025-.06.076-.093.112s-.046.051-.07.076-.067.07-.1.1l-.072.067-.125.1-.065.051c-.066.048-.132.093-.2.141l-.039.022a1.992,1.992,0,0,1-.178.1l-.079.035c-.049.022-.1.045-.152.063l-.09.032c-.051.018-.1.034-.153.048l-.093.024c-.056.014-.114.025-.171.035h-.011q.056,1.02.1,2.039a2.746,2.746,0,0,1,3.814-1.193l-.485,1.332,1-.96a2.739,2.739,0,0,1,.888,1.9,2.7,2.7,0,0,1-.07.758,2.747,2.747,0,0,1-5.059.749v.207a5.421,5.421,0,0,1-.315,2.389,4.852,4.852,0,0,1-1.012,1.366c-.25.254-.509.5-.773.739a2.761,2.761,0,0,1-.993.825q-.653.5-1.352.943l-.243.177c-.261.163-.53.329-.793.5l.141-.011a2.749,2.749,0,0,1,2.705,1.789l-1.717,1.405,1.89-.438a2.753,2.753,0,0,1-3.935,2.476c.044.052.086.105.128.159l.25.312c1.124,1.417,1.429,2.76.875,3.784l-.673-.364c.538-1-.271-2.274-.8-2.951-.08-.1-.163-.205-.246-.308a5.1,5.1,0,0,1-1.5-3.127C852.822,522.357,854.628,521.239,856.078,520.341Z" transform="translate(-757.29 -445.62)" fill="#f1f1f1"/>
  <path id="Path_3" data-name="Path 3" d="M685.639,458.077l-.431-.27c-.042-.025-.083-.052-.124-.079a4.116,4.116,0,0,0,.422-8.018l.021,1.7-.932-1.845h-.011a4.116,4.116,0,0,0-4.3,3.921v.233a4.919,4.919,0,0,1-.814-1.2,7.037,7.037,0,0,1-.371-3.092c.062-2.4.166-4.819.3-7.229a4.113,4.113,0,0,0,3.654-3.894v-.467c-.008-.119-.02-.237-.038-.354a.12.12,0,0,0-.01-.058c-.017-.1-.038-.2-.062-.292-.008-.036-.017-.072-.027-.108-.03-.105-.06-.208-.1-.311-.011-.034-.025-.066-.039-.1-.029-.076-.06-.149-.094-.222-.018-.039-.035-.077-.053-.115a.265.265,0,0,1-.014-.029h0a4.113,4.113,0,0,0-3.478-2.248,4.161,4.161,0,0,0-1.355.163l.027,2.208-.92-1.827a4.091,4.091,0,0,0-1.967,4.435h0a.4.4,0,0,0,.023.086c.013.055.027.108.041.162s.042.141.065.2.034.1.053.15c.027.073.059.141.091.215.018.042.035.084.055.125.052.105.108.209.17.311.021.037.045.07.067.1a2.062,2.062,0,0,0,.141.2c.03.041.062.079.093.118s.091.114.141.169l.1.114q.076.08.156.156l.108.1c.06.053.124.105.188.155.032.025.063.052.1.077.1.072.2.141.3.2.02.013.041.022.06.034a3,3,0,0,0,.266.141l.12.053c.074.034.149.066.226.094.045.018.09.034.141.049.076.025.153.049.23.07l.141.037c.086.02.171.036.257.052h.017q-.087,1.526-.152,3.052a4.113,4.113,0,0,0-5.712-1.785l.728,1.993-1.5-1.436a4.094,4.094,0,0,0-1.329,2.841,4.039,4.039,0,0,0,.1,1.134,4.113,4.113,0,0,0,7.567,1.124c0,.1,0,.208-.01.311a8.177,8.177,0,0,0,.471,3.586,7.223,7.223,0,0,0,1.516,2.043q.562.573,1.158,1.107a4.119,4.119,0,0,0,1.485,1.237q.984.752,2.026,1.405l.436.27c.391.243.793.493,1.186.752-.069,0-.141-.014-.208-.017a4.115,4.115,0,0,0-4.051,2.678l2.57,2.092-2.829-.655a4.12,4.12,0,0,0,5.9,3.707c-.065.079-.128.157-.191.237-.127.157-.253.313-.375.468-1.674,2.121-2.139,4.132-1.311,5.666l1.009-.544c-.807-1.494.406-3.4,1.2-4.411.119-.153.243-.306.368-.461,1.069-1.328,2.281-2.834,2.248-4.681C690.514,461.1,687.812,459.427,685.639,458.077Z" transform="translate(-600.433 -385.229)" fill="#f1f1f1"/>
  <path id="Path_4" data-name="Path 4" d="M594.453,699.649a41.378,41.378,0,0,0-5.78-1.193c-.916.094,1.39-4.4,2.926-3.856s3.586,1.993,4.757-.046,1.827-3.137,3.256-3.027,3.4-.878,4.828,0,2.427,1.959,4.4,1.913,3.835-4.436,5.371-2.681,3.373,3.364,4.814,2.78,3.092.294,4.405,1.282a4.127,4.127,0,0,0,4.5-.219,3.91,3.91,0,0,1,3.4-1.207c1.866.11,7.792,1.426,9.987,3.073s-2.854,3.731-5.268,3.731-2.854.659-4.94,1.647-5.488-.549-7.9,1.1-5.488-.878-9.658,0-3.292,2.085-5.708,1.207-1.536-1.207-5.048-1.426-7.354.548-7.684-.878-2.53-1.757-3.841-2.2S594.453,699.649,594.453,699.649Z" transform="translate(-530.095 -605.558)" fill="#3f3d56"/>
  <path id="Path_5" data-name="Path 5" d="M520.047,508.654l-1.883,5.772-.082.252-3.152,9.663-5.4,3.647-26.2-11.019,2.483-10.042.132-.528,1.329-5.375,0-.013L495.344,500Z" transform="translate(-415.408 -429.736)" fill="#f8ce6d"/>
  <path id="Path_6" data-name="Path 6" d="M544.172,508.654l-5.117,15.686-5.4,3.647,4.954-17.118L511.4,501.022l0-.013L519.469,500Z" transform="translate(-439.533 -429.736)" opacity="0.1"/>
  <path id="Path_7" data-name="Path 7" d="M550.584,510.521l-.434-.264,4.354-.457,18.651,6.594-.526.275-18.4-6.488Z" transform="translate(-472.838 -438.159)" opacity="0.1"/>
  <path id="Path_8" data-name="Path 8" d="M533.351,553.548,527.9,556.11l-26.772-10.59-.132.528,26.8,10.438,5.474-2.687" transform="translate(-430.595 -468.86)" opacity="0.1"/>
  <ellipse id="Ellipse_2" data-name="Ellipse 2" cx="0.937" cy="1.012" rx="0.937" ry="1.012" transform="translate(71.56 75.371) rotate(-72.75)" fill="#3f3d56"/>
  <ellipse id="Ellipse_3" data-name="Ellipse 3" cx="0.937" cy="1.012" rx="0.937" ry="1.012" transform="translate(95.156 84.508) rotate(-72.75)" fill="#3f3d56"/>
  <ellipse id="Ellipse_4" data-name="Ellipse 4" cx="0.937" cy="1.012" rx="0.937" ry="1.012" transform="translate(91.427 95.854) rotate(-72.75)" fill="#3f3d56"/>
  <ellipse id="Ellipse_5" data-name="Ellipse 5" cx="0.937" cy="1.012" rx="0.937" ry="1.012" transform="translate(68.673 86.334) rotate(-72.75)" fill="#3f3d56"/>
  <path id="Path_9" data-name="Path 9" d="M694.685,592.634c-.056.183-.507,0-1.081-.18s-1.02-.377-.964-.562.6-.281,1.169-.1S694.743,592.452,694.685,592.634Z" transform="translate(-619.627 -520.771)" fill="#3f3d56"/>
  <ellipse id="Ellipse_6" data-name="Ellipse 6" cx="0.346" cy="0.987" rx="0.346" ry="0.987" transform="translate(75.958 70.949) rotate(-72.75)" fill="#3f3d56"/>
  <path id="Path_10" data-name="Path 10" d="M780.812,624.5c-.056.183-.62.014-1.166-.156s-.972-.36-.916-.542.575-.281,1.124-.117S780.871,624.318,780.812,624.5Z" transform="translate(-693.618 -548.197)" fill="#3f3d56"/>
  <path id="Path_11" data-name="Path 11" d="M862.984,653.786c-.063.205-.662.027-1.242-.153s-1.031-.387-.968-.592.618-.33,1.2-.15S863.049,653.581,862.984,653.786Z" transform="translate(-764.132 -573.293)" fill="#3f3d56"/>
  <path id="Path_12" data-name="Path 12" d="M887.243,650.286c-.065.205-.662.027-1.242-.153s-1.033-.386-.968-.592.618-.33,1.2-.15S887.306,650.08,887.243,650.286Z" transform="translate(-784.981 -570.285)" fill="#3f3d56"/>
  <path id="Path_13" data-name="Path 13" d="M901.576,643.706c-.065.205-.562.059-1.037-.09s-.843-.329-.786-.534.537-.357,1.016-.208S901.639,643.5,901.576,643.706Z" transform="translate(-797.634 -564.707)" fill="#3f3d56"/>
  <path id="Path_14" data-name="Path 14" d="M821.173,614.985c-.051.163-.562.013-1.048-.14s-.875-.325-.823-.488.516-.257,1.008-.105S821.223,614.821,821.173,614.985Z" transform="translate(-728.489 -540.093)" fill="#3f3d56"/>
  <ellipse id="Ellipse_7" data-name="Ellipse 7" cx="0.346" cy="0.852" rx="0.346" ry="0.852" transform="translate(80.014 70.865) rotate(-72.75)" fill="#3f3d56"/>
  <path id="Path_15" data-name="Path 15" d="M755.951,647.03a.888.888,0,0,0-.407-1.034.9.9,0,0,0,.184-.327,4.44,4.44,0,0,1-1.5-2.189,2.317,2.317,0,0,1-1.915.193.888.888,0,0,0-.567.579.252.252,0,0,1-.014.056l-.031.016a.888.888,0,1,0-.859,1.508.787.787,0,0,0,.141.031l.011.326,4.252,1.738-.028-.281A.891.891,0,0,0,755.951,647.03Z" transform="translate(-669.12 -565.208)" opacity="0.1"/>
  <path id="Path_16" data-name="Path 16" d="M748.441,671.74a.89.89,0,0,1-1.012.462.866.866,0,0,1-.094.362.888.888,0,0,1-1.193.395.9.9,0,0,1-.327-.281.888.888,0,0,1-1.658-.575.9.9,0,0,1-.281-.087.888.888,0,0,1-.395-1.192l.028-.052-.011-.032a.879.879,0,0,1-.37-.094.892.892,0,1,1,.807-1.592.939.939,0,0,1,.119.072l.233-.226,4.278,1.71-.215.183A.888.888,0,0,1,748.441,671.74Z" transform="translate(-662.603 -587.127)" opacity="0.1"/>
  <path id="Path_17" data-name="Path 17" d="M758.755,651.357l-1.033,3.347a1.006,1.006,0,0,0,.609,1.241h0a1,1,0,0,0,1.31-.644l1.033-3.349a1,1,0,0,0-.714-1.265h0a1,1,0,0,0-1.2.669Z" transform="translate(-675.528 -571.448)" opacity="0.1"/>
  <path id="Path_18" data-name="Path 18" d="M759.686,653.213l-.937,3a.9.9,0,0,0,.547,1.112h0a.9.9,0,0,0,1.173-.578l.932-3a.9.9,0,0,0-.641-1.141h0A.9.9,0,0,0,759.686,653.213Z" transform="translate(-676.414 -573.099)" fill="#3f3d56"/>
  <path id="Path_19" data-name="Path 19" d="M642.093,710.584a41.209,41.209,0,0,0-5.78-1.192c-.916.1,1.39-4.406,2.926-3.856s3.586,1.991,4.757-.048,1.827-3.135,3.256-3.026,3.4-.878,4.828,0,2.427,1.958,4.4,1.911,3.835-4.436,5.372-2.68,3.373,3.363,4.814,2.78,3.092.294,4.4,1.282a4.129,4.129,0,0,0,4.5-.219,3.909,3.909,0,0,1,3.4-1.209c1.866.11,7.792,1.428,9.987,3.073s-2.853,3.732-5.268,3.732-2.853.658-4.938,1.646-5.489-.548-7.9,1.1-5.488-.877-9.658,0-3.293,2.085-5.707,1.209-1.537-1.209-5.049-1.428-7.354.549-7.683-.878-2.522-1.755-3.841-2.195S642.093,710.584,642.093,710.584Z" transform="translate(-571.04 -614.956)" fill="#3f3d56"/>
  <path id="Path_20" data-name="Path 20" d="M961.487,636.89a2.329,2.329,0,0,0-.6-2.414,3.907,3.907,0,0,1-1.2-2.289c.021-1.265,1.363-2.011,2.435-2.683a11.808,11.808,0,0,0,2.187-1.758,3.179,3.179,0,0,0,.672-.9,3.647,3.647,0,0,0,.2-1.6q-.069-2.706-.268-5.409" transform="translate(-849.151 -544.962)" fill="none" stroke="#3f3d56" stroke-miterlimit="10" stroke-width="4"/>
  <path id="Path_21" data-name="Path 21" d="M987.355,607.637a1.967,1.967,0,0,0-.984-1.616l-.441.874.014-1.058a1.993,1.993,0,0,0-.651-.079,1.967,1.967,0,1,0,2.063,1.879Z" transform="translate(-869.551 -532.857)" fill="#57b793"/>
  <path id="Path_22" data-name="Path 22" d="M963.644,696.58a1.967,1.967,0,1,1,.1-1.588L962.507,696l1.356-.313A1.968,1.968,0,0,1,963.644,696.58Z" transform="translate(-849.358 -608.451)" fill="#57b793"/>
  <path id="Path_23" data-name="Path 23" d="M966.57,662.765a1.967,1.967,0,0,1-.624-3.869l-.01.812.445-.884h0a1.967,1.967,0,0,1,2.066,1.877,1.947,1.947,0,0,1-.084.673A1.967,1.967,0,0,1,966.57,662.765Z" transform="translate(-853.258 -578.465)" fill="#57b793"/>
  <path id="Path_24" data-name="Path 24" d="M1001.035,640.153a1.967,1.967,0,1,1,.873-3.692l-.349.956.717-.689a1.967,1.967,0,0,1,.637,1.362,1.936,1.936,0,0,1-.049.544,1.968,1.968,0,0,1-1.828,1.519Z" transform="translate(-882.935 -559.039)" fill="#57b793"/>
  <path id="Path_25" data-name="Path 25" d="M987.146,614.767c-.455.049-.9.191-1.355.219a1.469,1.469,0,0,1-1.247-.436,5.857,5.857,0,0,1-.365-.642,1.4,1.4,0,0,0-.5-.468,1.967,1.967,0,1,0,3.688,1.31Q987.258,614.754,987.146,614.767Z" transform="translate(-869.608 -539.461)" opacity="0.1"/>
  <path id="Path_26" data-name="Path 26" d="M1000.894,647.021a1.975,1.975,0,0,1-1.876-2.811,1.456,1.456,0,0,1,.4.392,6.2,6.2,0,0,0,.392.652,1.611,1.611,0,0,0,1.307.458c.476-.021.936-.157,1.405-.2.066,0,.14-.01.2-.011a1.968,1.968,0,0,1-1.827,1.521Z" transform="translate(-882.794 -565.907)" opacity="0.1"/>
  <path id="Path_27" data-name="Path 27" d="M966.816,669.9a1.967,1.967,0,0,1-1.889-2.777,1.593,1.593,0,0,1,.422.4c.153.216.249.467.422.666a1.832,1.832,0,0,0,1.4.489c.5-.011.958-.131,1.443-.169A1.968,1.968,0,0,1,966.816,669.9Z" transform="translate(-853.504 -585.597)" opacity="0.1"/>
  <path id="Path_28" data-name="Path 28" d="M963.331,704.289a5.565,5.565,0,1,0-3.163-1.223,8.579,8.579,0,0,0,.528.7,2.456,2.456,0,0,0,1.634.575A8.418,8.418,0,0,0,963.331,704.289Z" transform="translate(-849.044 -616.16)" opacity="0.1"/>
  <path id="Path_29" data-name="Path 29" d="M951.32,729.677a5.7,5.7,0,0,0,2.026-.382c.469-.334,2.389-.732,2.511-.2s2.338,2.67.582,2.678a14.909,14.909,0,0,1-4.552-.562C951.42,730.924,951.32,729.677,951.32,729.677Z" transform="translate(-841.959 -638.64)" fill="#656380"/>
  <path id="Path_30" data-name="Path 30" d="M956.5,736.708a15,15,0,0,1-4.552-.562c-.357-.218-.5-1-.547-1.356h-.052s.1,1.256.562,1.546a14.837,14.837,0,0,0,4.552.562c.507,0,.682-.184.673-.451C957.062,736.6,956.874,736.7,956.5,736.708Z" transform="translate(-841.985 -643.758)" opacity="0.2"/>
  <path id="Path_31" data-name="Path 31" d="M361.952,232.327a.634.634,0,0,1,.044-.3c.114-.2.412-.148.637-.09a14.859,14.859,0,0,0,2.788.074,2.2,2.2,0,0,1,2.167,1.432,6.78,6.78,0,0,0,1.719-1.766,2.118,2.118,0,0,0,.448-1.293,2.525,2.525,0,0,0-1.131-1.594l-1.546-1.265a2.32,2.32,0,0,0-.694-.441,3.454,3.454,0,0,0-1.124-.065c-1.124,0-2.329-.512-3.332,0a3.546,3.546,0,0,0-1.037.943l-1.383,1.637a.861.861,0,0,0-.221.375,1.681,1.681,0,0,0,.1.6c.066.365-.093.755.03,1.106.2.583.908.666,1.341,1,.162.125.415.547.606.542C361.7,233.215,361.942,232.6,361.952,232.327Z" transform="translate(-333.114 -207.148)" fill="#3f3d56"/>
  <path id="Path_32" data-name="Path 32" d="M369.049,281.107a2.462,2.462,0,0,1-.537,1.238,3.709,3.709,0,0,1-1.242,1.307,11.936,11.936,0,0,0,8.822.93c.474-.141,1.033-.433,1-.926a5.038,5.038,0,0,1-1.622-.651,3.539,3.539,0,0,1-1.19-1.686,18.968,18.968,0,0,1-.537-2.028.382.382,0,0,0-.087-.188.388.388,0,0,0-.267-.07L371.522,279a5.575,5.575,0,0,0-2.317.308C368.317,279.714,369.074,280.351,369.049,281.107Z" transform="translate(-339.984 -252.018)" fill="#ffc0c6"/>
  <path id="Path_33" data-name="Path 33" d="M369.049,281.107a2.462,2.462,0,0,1-.537,1.238,3.709,3.709,0,0,1-1.242,1.307,11.936,11.936,0,0,0,8.822.93c.474-.141,1.033-.433,1-.926a5.038,5.038,0,0,1-1.622-.651,3.539,3.539,0,0,1-1.19-1.686,18.968,18.968,0,0,1-.537-2.028.382.382,0,0,0-.087-.188.388.388,0,0,0-.267-.07L371.522,279a5.575,5.575,0,0,0-2.317.308C368.317,279.714,369.074,280.351,369.049,281.107Z" transform="translate(-339.984 -252.018)" opacity="0.1"/>
  <path id="Path_34" data-name="Path 34" d="M353.007,738.279c-.461.7-1.064,1.3-1.57,1.967a3.97,3.97,0,0,0-.935,2.291.362.362,0,0,0,.1.3.38.38,0,0,0,.193.06l1.953.25a3.27,3.27,0,0,0,.9.031,3.19,3.19,0,0,0,.922-.336,1.271,1.271,0,0,0,.554-.422c.094-.155.119-.344.209-.5.271-.476.954-.455,1.5-.372a11.447,11.447,0,0,0-.642-4.3.44.44,0,0,0-.363-.377c-.468-.153-1.6-.753-1.993-.472C353.541,736.606,353.24,737.907,353.007,738.279Z" transform="translate(-325.57 -645.076)" fill="#575a88"/>
  <path id="Path_35" data-name="Path 35" d="M426.268,739.971a1.907,1.907,0,0,1,1.18-.309c.571.128.825.8,1.31,1.124a2.335,2.335,0,0,0,1.022.306,23.809,23.809,0,0,0,3.3.2c.353,0,.8-.084.883-.422s-.239-.606-.527-.781a15.458,15.458,0,0,0-1.951-1.013,3.912,3.912,0,0,1-.93-.495,3.488,3.488,0,0,1-.932-1.58,6.088,6.088,0,0,0-.686-1.827c-.388-.381-.909-.128-1.4-.021a3.247,3.247,0,0,0-2.128.96C424.705,737.1,424.159,740.947,426.268,739.971Z" transform="translate(-389.414 -643.911)" fill="#575a88"/>
  <path id="Path_36" data-name="Path 36" d="M349.407,448.62a14.325,14.325,0,0,0-1.048,4.994,28.409,28.409,0,0,0,.243,3.829q.333,3.092.669,6.183a17.447,17.447,0,0,0,.4,2.545c.243.934.638,1.827.92,2.746a18.42,18.42,0,0,1,.048,8.891,4.439,4.439,0,0,0-.121.984,6.865,6.865,0,0,0,.332,1.449c.756,2.93-.984,6.183.152,8.994a.446.446,0,0,0,.178.246.452.452,0,0,0,.354-.015,4.792,4.792,0,0,0,.926-.438,5.651,5.651,0,0,0,2.3,1.662c.666-.164.791-.974,1.009-1.624a11.1,11.1,0,0,0,.4-1.415,11.261,11.261,0,0,0,.148-1.782l.576-20.285-.042,6.19a7.3,7.3,0,0,0,.094,1.5c.084.412.239.807.327,1.218a8.294,8.294,0,0,1,.1,1.8,52.949,52.949,0,0,0,.977,10.655,10.992,10.992,0,0,0,1.069,3.329.367.367,0,0,0,.209.205c.122.027.235-.07.327-.156a3.582,3.582,0,0,1,4.113-.447c-.124-.6.444-1.289.038-1.741a4.159,4.159,0,0,0-.422-.308,1.372,1.372,0,0,1-.357-.93,21.55,21.55,0,0,1,0-4.535,20.42,20.42,0,0,0,.315-5.649c-.239-1.353-.883-2.67-.755-4.032a11.9,11.9,0,0,1,.8-2.625c1.276-3.8,0-8.041.923-11.945a4.225,4.225,0,0,0,.148-2.7l.586-.178-1.217-2.778a5.221,5.221,0,0,0-.984-1.655,5.166,5.166,0,0,0-2.974-1.124l-8.676-1.353C350.735,448.2,349.7,447.907,349.407,448.62Z" transform="translate(-323.726 -397.404)" fill="#3c354c"/>
  <circle id="Ellipse_8" data-name="Ellipse 8" cx="3.714" cy="3.714" r="3.714" transform="translate(27.429 21.641)" fill="#ffc0c6"/>
  <path id="Path_37" data-name="Path 37" d="M357.932,296.043a.863.863,0,0,0-.6-.105,1.023,1.023,0,0,0-.281.153l-1.757,1.231a2.716,2.716,0,0,0-.665.582,2.166,2.166,0,0,0-.309,1.459,23.845,23.845,0,0,0,.8,3.333,3.882,3.882,0,0,1-.469,3.283,1.742,1.742,0,0,0-.306.434,1.265,1.265,0,0,0-.058.422,11.491,11.491,0,0,0,.034,1.6c.079.687.281,1.355.391,2.036.192,1.161.141,2.351.289,3.513a.562.562,0,0,0,.562.61,16.554,16.554,0,0,0,2.624.173c1.016,0,2.031-.056,3.045-.11l4.618-.243a.455.455,0,0,0,.513-.471,19.751,19.751,0,0,0,.621-5.892,21.454,21.454,0,0,0-.843-3.741,6.531,6.531,0,0,1-.34-3.061c.141-.67.482-1.29.571-1.967a2.32,2.32,0,0,0-.635-1.953c-.517-.5-1.272-.684-1.788-1.182a4.061,4.061,0,0,0-.461-.447.576.576,0,0,0-.606-.07.78.78,0,0,0-.23.257c-.45.683-1.124,1.809-2.073,1.632C359.552,297.336,358.836,296.479,357.932,296.043Z" transform="translate(-328.813 -266.265)" fill="#00b9ff"/>
  <path id="Path_38" data-name="Path 38" d="M443.49,470.1a.971.971,0,0,0-.422,1.064,2.146,2.146,0,0,0,1.315-.183c.263-.128.59-.308.818-.122a.694.694,0,0,1,.167.253,8.545,8.545,0,0,0,.891,1.48,1.509,1.509,0,0,0,.663-.479,1.388,1.388,0,0,0,.173-.513,13.643,13.643,0,0,0,.2-1.367,1.214,1.214,0,0,0-.193-.95C446.122,468.228,444.3,469.494,443.49,470.1Z" transform="translate(-405.091 -415.213)" fill="#ffc0c6"/>
  <path id="Path_39" data-name="Path 39" d="M360.3,222.424a.63.63,0,0,1,.044-.3c.114-.2.412-.141.637-.091a14.739,14.739,0,0,0,2.788.076,2.2,2.2,0,0,1,2.167,1.432,6.8,6.8,0,0,0,1.72-1.766,2.118,2.118,0,0,0,.448-1.293,2.525,2.525,0,0,0-1.131-1.594l-1.546-1.265a2.315,2.315,0,0,0-.694-.44,3.454,3.454,0,0,0-1.124-.065c-1.124,0-2.328-.512-3.332,0a3.593,3.593,0,0,0-1.039.944l-1.381,1.637a.873.873,0,0,0-.222.374,1.647,1.647,0,0,0,.1.6c.065.365-.093.756.028,1.107.2.583.909.665,1.342,1,.162.125.413.547.606.541C360.053,223.314,360.292,222.694,360.3,222.424Z" transform="translate(-331.696 -198.639)" fill="#3f3d56"/>
  <path id="Path_40" data-name="Path 40" d="M441.634,309.4a2.881,2.881,0,0,1,2.282.422,5.76,5.76,0,0,1,1.869,3.291l.828,2.767a12.731,12.731,0,0,1,.575,7.137c-.218,1.578.3,3.308.3,4.9,0,1.827-.011,3.765-.942,5.34a.891.891,0,0,0-.562-.6,2.621,2.621,0,0,0-.836-.141l-2.473-.159a7.636,7.636,0,0,0,.542-1.114c.948-2.437.585-5.16.207-7.746a5.339,5.339,0,0,0-.141-.731,6.968,6.968,0,0,1-.167-2.832,6.61,6.61,0,0,0,.044-1.29,1.443,1.443,0,0,0-.114-.528,1.662,1.662,0,0,0-.273-.377l-.5-.562a39.1,39.1,0,0,0-.572-5.094A11.437,11.437,0,0,1,441.634,309.4Z" transform="translate(-403.857 -278.079)" fill="#00b9ff"/>
  <path id="Path_41" data-name="Path 41" d="M357.82,306.384a11.936,11.936,0,0,1-4.474-7.579c-.081-.533-.294-1.228-.832-1.21a1.061,1.061,0,0,0-.458.16l-1.951,1.046a.735.735,0,0,0-.34.281c-.128.25.053.538.209.771,1.05,1.588,1.124,3.6,1.166,5.507a3.227,3.227,0,0,1-.254,1.646c-.221.4-.6.69-.807,1.1a2.893,2.893,0,0,0-.2,1.256c-.039,3.058-.079,6.12.081,9.175a2.738,2.738,0,0,0,.306,1.335,2.785,2.785,0,0,0,.972.815l2.958,1.787a5.249,5.249,0,0,0,1.8.8,1.784,1.784,0,0,0,1.768-.62c.181-.264.261-.586.436-.854a.719.719,0,0,1,.8-.367.913.913,0,0,1,.422.509,3.852,3.852,0,0,0,.693,1.093,1.348,1.348,0,0,0,1.176.422,1.976,1.976,0,0,0,.913-.621,14.432,14.432,0,0,0,2.23-2.624.632.632,0,0,0,.126-.4.8.8,0,0,0-.218-.365,3.608,3.608,0,0,1-.632-1.64c-1.112-5.846.458-11.922-.406-17.81a2.788,2.788,0,0,0-.821-1.751,6.723,6.723,0,0,0-1.755-1.031.843.843,0,0,0-.645-.1c-.344.141-.346.614-.32.984a12.886,12.886,0,0,1-.112,2.267l-.3,2.781a5.375,5.375,0,0,1-.236,1.251A5.037,5.037,0,0,1,357.82,306.384Z" transform="translate(-324.902 -267.557)" fill="#575a88"/>
  <path id="Path_42" data-name="Path 42" d="M224.723,103.733s-1.072.871-2.338-1.414S215,94.542,215,94.542s-.791-.724,2.215-1.929S224.33,87,224.33,87s6.849,6.089,7.52,9.1-.8,3.527-3.315,5.129S224.723,103.733,224.723,103.733Z" transform="translate(-209.035 -87)" fill="#3f3d56"/>
  <path id="Path_43" data-name="Path 43" d="M318.715,219.951,301.43,188.8l1.467-.51,16.993,31.016a.673.673,0,0,1-.281.919h0A.67.67,0,0,1,318.715,219.951Z" transform="translate(-283.396 -174.056)" fill="#656380"/>
  <path id="Path_44" data-name="Path 44" d="M366.818,315.041c.452-.968-.011-2.085-.32-3.108a10.5,10.5,0,0,1-.437-2.5,1.827,1.827,0,0,1,.087-.791.7.7,0,0,1,.6-.46,2.885,2.885,0,0,1,.451,2.055,6.915,6.915,0,0,1,.8-.156,1.488,1.488,0,0,1,1.617,1.027,5.937,5.937,0,0,1-.024,4.286,8.151,8.151,0,0,1-.687,1.131l-1.355,1.979a.593.593,0,0,1-.37.3c-.163.024-.333-.124-.453-.26-.412-.465-1.142-1.142-1.062-1.783S366.548,315.61,366.818,315.041Z" transform="translate(-338.597 -277.098)" fill="#ffc0c6"/>
  <path id="Path_45" data-name="Path 45" d="M322.749,314.324a3.732,3.732,0,0,0-3.671,1.405,4.675,4.675,0,0,0-.514,2.017c-.089.977-.141,1.956-.19,2.934l-.266,5.149c-.032.616-.063,1.232-.074,1.848a4.164,4.164,0,0,0,.153,1.428,4.449,4.449,0,0,0,.843,1.331c.336.41.756.833,1.249.714a1.358,1.358,0,0,0,.535-.33l1.124-.972a12.3,12.3,0,0,0,2.119-2.146c.281-.4.512-.825.8-1.218.835-1.158,2.119-2.036,2.559-3.394-.422-.022-1.034-.162-1.228-.535-.1-.2-.117-.434-.23-.624-.173-.289-.562-.447-.62-.779a18.934,18.934,0,0,0-2.912,3.031l.358-1.393a.885.885,0,0,1,.159-.361,1.593,1.593,0,0,1,.422-.266,1.829,1.829,0,0,0,.691-1.314A9.2,9.2,0,0,0,322.749,314.324Z" transform="translate(-297.659 -282.35)" fill="#00b9ff"/>
</svg>
