<svg xmlns="http://www.w3.org/2000/svg" width="135" height="131" viewBox="0 0 135 131">
  <g id="outline" transform="translate(-8.733 -4.367)">
    <path id="Path_262" data-name="Path 262" d="M17.833,134.395a2.183,2.183,0,0,0,1.817.972H133.183a2.183,2.183,0,0,0,2.118-2.713l-4.367-17.467a2.183,2.183,0,0,0-2.118-1.654H125.8l.3-.6a4.76,4.76,0,0,1,2.116-2.116l3.761-1.881a2.183,2.183,0,0,0,0-3.905l-3.76-1.881a4.761,4.761,0,0,1-2.116-2.116l-1.88-3.761a2.183,2.183,0,0,0-1.954-1.207v-.6a89.648,89.648,0,0,0-32.978-69.4,31.1,31.1,0,0,0,21.583-11.607,2.184,2.184,0,1,0-3.41-2.729A26.763,26.763,0,0,1,87.345,21.817L97.813,7.86a2.183,2.183,0,0,0-1.747-3.493H45.85A2.183,2.183,0,0,0,44,7.707l9.834,15.736A89.637,89.637,0,0,0,17.467,95.469v23.953l-4,6a2.183,2.183,0,0,0,0,2.422ZM42.1,131l3.275-13.1h9.691L58.337,131Zm8.733-17.467,3.275-13.1H63.8l3.275,13.1Zm76.282,4.367,3.275,13.1H62.838l-3.275-13.1Zm-4.845-14.771a9.159,9.159,0,0,0,3.855,3.854,9.159,9.159,0,0,0-3.855,3.854,9.158,9.158,0,0,0-3.855-3.854,9.158,9.158,0,0,0,3.855-3.854Zm-3.769-2.223-.064.129a4.76,4.76,0,0,1-2.116,2.116l-3.761,1.881a2.183,2.183,0,0,0,0,3.905l3.761,1.881a4.761,4.761,0,0,1,2.116,2.116l.3.6H71.571l-3.275-13.1h9.788l3.3,1.65A4.761,4.761,0,0,1,83.5,104.2l1.88,3.761a2.183,2.183,0,0,0,3.905,0l1.88-3.761a4.76,4.76,0,0,1,2.116-2.116l3.3-1.649h21.8ZM83.479,98.25A9.158,9.158,0,0,0,87.333,94.4a9.158,9.158,0,0,0,3.855,3.854,9.159,9.159,0,0,0-3.855,3.854,9.158,9.158,0,0,0-3.855-3.854ZM49.789,8.733H91.7l-9.825,13.1h-23.9ZM21.467,121.295a2.183,2.183,0,0,0,.367-1.211V95.469A85.259,85.259,0,0,1,57.462,26.2h24.81A85.262,85.262,0,0,1,117.9,95.469v.6H96.582l-3.3-1.65A4.761,4.761,0,0,1,91.167,92.3l-1.88-3.761a2.183,2.183,0,0,0-3.905,0L83.5,92.3a4.761,4.761,0,0,1-2.116,2.116l-3.3,1.65H52.4a2.183,2.183,0,0,0-2.118,1.654l-3.953,15.813H43.667a2.183,2.183,0,0,0-2.118,1.654L37.6,131H20.818l-2.911-4.367Z" fill="#13770a"/>
    <path id="Path_263" data-name="Path 263" d="M30.567,101.084A2.183,2.183,0,0,0,32.75,98.9V95.08A78.71,78.71,0,0,1,34.872,76.93a2.184,2.184,0,1,0-4.247-1.018,83.119,83.119,0,0,0-2.242,19.166V98.9A2.183,2.183,0,0,0,30.567,101.084Z" fill="#13770a"/>
    <path id="Path_264" data-name="Path 264" d="M30.567,112a2.183,2.183,0,0,0,2.183-2.183v-2.183a2.183,2.183,0,1,0-4.367,0v2.183A2.183,2.183,0,0,0,30.567,112Z" fill="#13770a"/>
    <path id="Path_265" data-name="Path 265" d="M67.683,83.689v3.644H72.05V83.689a8.949,8.949,0,0,0,2.613-17.436l-8.213-2.737A4.585,4.585,0,0,1,67.9,54.583h3.933a4.589,4.589,0,0,1,4.582,4.585v1.965h4.367V59.168a8.959,8.959,0,0,0-8.733-8.945V46.578H67.683v3.644A8.949,8.949,0,0,0,65.07,67.658L73.282,70.4a4.585,4.585,0,0,1-1.449,8.932H67.9a4.589,4.589,0,0,1-4.585-4.584V72.779H58.95v1.965A8.959,8.959,0,0,0,67.683,83.689Z" fill="#13770a"/>
    <path id="Path_266" data-name="Path 266" d="M92.907,82.736l3.761,1.881a4.761,4.761,0,0,1,2.116,2.116l1.88,3.761a2.183,2.183,0,0,0,3.905,0l1.88-3.761a4.761,4.761,0,0,1,2.116-2.116l3.761-1.881a2.183,2.183,0,0,0,0-3.905l-3.76-1.881a4.761,4.761,0,0,1-2.116-2.116l-1.88-3.761a2.183,2.183,0,0,0-3.905,0l-1.88,3.761a4.761,4.761,0,0,1-2.116,2.116l-3.761,1.881a2.183,2.183,0,0,0,0,3.905Zm9.71-5.807a9.159,9.159,0,0,0,3.855,3.854,9.159,9.159,0,0,0-3.855,3.854,9.158,9.158,0,0,0-3.855-3.854A9.159,9.159,0,0,0,102.617,76.929Z" fill="#13770a"/>
    <path id="Path_267" data-name="Path 267" d="M15.283,19.65H19.65v4.367H15.283Z" fill="#13770a"/>
    <path id="Path_268" data-name="Path 268" d="M15.283,32.75H19.65v4.367H15.283Z" fill="#13770a"/>
    <path id="Path_269" data-name="Path 269" d="M13.1,50.217h4.367v4.367H13.1Z" fill="#13770a"/>
    <path id="Path_270" data-name="Path 270" d="M13.1,58.95h4.367v4.367H13.1Z" fill="#13770a"/>
    <path id="Path_271" data-name="Path 271" d="M17.467,54.583h4.367V58.95H17.467Z" fill="#13770a"/>
    <path id="Path_272" data-name="Path 272" d="M8.733,54.583H13.1V58.95H8.733Z" fill="#13770a"/>
    <path id="Path_273" data-name="Path 273" d="M21.833,26.2H26.2v4.367H21.833Z" fill="#13770a"/>
    <path id="Path_274" data-name="Path 274" d="M8.733,26.2H13.1v4.367H8.733Z" fill="#13770a"/>
    <path id="Path_275" data-name="Path 275" d="M120.083,30.567h4.367v4.367h-4.367Z" fill="#13770a"/>
    <path id="Path_276" data-name="Path 276" d="M120.083,43.667h4.367v4.367h-4.367Z" fill="#13770a"/>
    <path id="Path_277" data-name="Path 277" d="M126.633,37.117H131v4.367h-4.367Z" fill="#13770a"/>
    <path id="Path_278" data-name="Path 278" d="M113.533,37.117H117.9v4.367h-4.367Z" fill="#13770a"/>
  </g>
</svg>
