<svg xmlns="http://www.w3.org/2000/svg" width="135" height="131" viewBox="0 0 135 131">
  <g id="loan" transform="translate(-4.367 -4.367)">
    <path id="Path_233" data-name="Path 233" d="M8.733,135.367h13.1A4.371,4.371,0,0,0,26.2,131v-4.367H75.556a58.465,58.465,0,0,0,57.579-48.308l.948-5.367a8.2,8.2,0,0,0-11.816-8.736V54.583h2.183a2.183,2.183,0,0,0,1.544-3.727L108.527,33.39a2.181,2.181,0,0,0-3.087,0L100.433,38.4V8.733A2.183,2.183,0,0,0,98.25,6.55H76.417a2.183,2.183,0,0,0-2.183,2.183V32.75H65.386a35.554,35.554,0,0,0-3.878-7.033l5.517-13.484a3.784,3.784,0,0,0-5.185-4.838L57.712,9.458l-2.6-3.467A3.786,3.786,0,0,0,49.4,5.583L46.084,8.9,43.9,5.991A3.787,3.787,0,0,0,38.2,5.583l-4.19,4.19-6.3-1.8a3.784,3.784,0,0,0-4.364,5.445l6.6,12.19c-4.635,4.188-10.3,15.954-10.3,26.645v6.7a13.113,13.113,0,0,0,13.1,13.1h83.8l-4.611,9.225L99.933,86.421A10.9,10.9,0,0,0,89.517,78.6H58.083A60.405,60.405,0,0,0,26.2,87.652V82.967A4.371,4.371,0,0,0,21.833,78.6H8.733a4.371,4.371,0,0,0-4.367,4.367V131a4.371,4.371,0,0,0,4.367,4.367Zm24.4-121.3a3.779,3.779,0,0,0,3.716-.963l3.958-3.958,2.183,2.915a3.785,3.785,0,0,0,5.705.4L52.02,9.146l2.491,3.319a3.774,3.774,0,0,0,4.72,1.118l3.177-1.589L57.483,24.017H51.566l2.786-5.574-3.906-1.954-3.762,7.528H42.857l-3.044-6.332-3.937,1.893,2.133,4.439H34.049L27.842,12.554ZM54.583,34.933v32.75H32.75a8.742,8.742,0,0,1-8.733-8.733v-6.7c0-11.687,7.233-22.587,9.3-23.87H58.05a23.525,23.525,0,0,1,2.511,4.367H56.767a2.183,2.183,0,0,0-2.183,2.183Zm4.367,2.183H74.233V67.683H58.95Zm48.033.9,12.2,12.2H94.787ZM78.6,10.917H96.067V42.763l-8.094,8.094a2.183,2.183,0,0,0,1.544,3.727H91.7v13.1H78.6ZM96.067,54.583H117.9v13.1h-4.367V58.95a2.183,2.183,0,0,0-2.183-2.183h-8.733a2.183,2.183,0,0,0-2.183,2.183v8.733H96.067Zm13.1,13.1H104.8v-6.55h4.367ZM58.083,82.967H89.517a6.55,6.55,0,0,1,0,13.1H54.583v4.367H89.517a10.9,10.9,0,0,0,10.764-9.412l14.111-6.048a2.168,2.168,0,0,0,1.094-1.031l7.065-14.133a3.851,3.851,0,0,1,7.236,2.391l-.948,5.367a54.105,54.105,0,0,1-53.282,44.7H26.2V92.875a56.083,56.083,0,0,1,31.883-9.908Zm-49.35,0h13.1l0,48.033H8.733Z" fill="#13770a"/>
    <path id="Path_234" data-name="Path 234" d="M13.1,89.517h4.367v6.55H13.1Z" fill="#13770a"/>
    <path id="Path_235" data-name="Path 235" d="M82.967,15.283H85.15V19.65H82.967Z" fill="#13770a"/>
    <path id="Path_236" data-name="Path 236" d="M89.517,15.283H91.7V19.65H89.517Z" fill="#13770a"/>
    <path id="Path_237" data-name="Path 237" d="M82.967,24.017H85.15v4.367H82.967Z" fill="#13770a"/>
    <path id="Path_238" data-name="Path 238" d="M89.517,24.017H91.7v4.367H89.517Z" fill="#13770a"/>
    <path id="Path_239" data-name="Path 239" d="M82.967,32.75H85.15v4.367H82.967Z" fill="#13770a"/>
    <path id="Path_240" data-name="Path 240" d="M89.517,32.75H91.7v4.367H89.517Z" fill="#13770a"/>
    <path id="Path_241" data-name="Path 241" d="M63.317,41.483H65.5V45.85H63.317Z" fill="#13770a"/>
    <path id="Path_242" data-name="Path 242" d="M69.867,41.483H72.05V45.85H69.867Z" fill="#13770a"/>
    <path id="Path_243" data-name="Path 243" d="M63.317,50.217H65.5v4.367H63.317Z" fill="#13770a"/>
    <path id="Path_244" data-name="Path 244" d="M69.867,50.217H72.05v4.367H69.867Z" fill="#13770a"/>
    <path id="Path_245" data-name="Path 245" d="M63.317,58.95H65.5v4.367H63.317Z" fill="#13770a"/>
    <path id="Path_246" data-name="Path 246" d="M69.867,58.95H72.05v4.367H69.867Z" fill="#13770a"/>
    <path id="Path_247" data-name="Path 247" d="M82.967,41.483H85.15V45.85H82.967Z" fill="#13770a"/>
    <path id="Path_248" data-name="Path 248" d="M89.517,41.483H91.7V45.85H89.517Z" fill="#13770a"/>
    <path id="Path_249" data-name="Path 249" d="M48.033,39.3H45.85V37.117H41.483V39.3H39.3a2.183,2.183,0,0,0-2.183,2.183v6.55A2.183,2.183,0,0,0,39.3,50.217h6.55V52.4H37.117v2.183A2.183,2.183,0,0,0,39.3,56.767h2.183V58.95H45.85V56.767h2.183a2.183,2.183,0,0,0,2.183-2.183v-6.55a2.183,2.183,0,0,0-2.183-2.183h-6.55V43.667h8.733V41.483A2.183,2.183,0,0,0,48.033,39.3Z" fill="#13770a"/>
    <path id="Path_250" data-name="Path 250" d="M115.717,8.733h4.367V13.1h-4.367Z" fill="#13770a"/>
    <path id="Path_251" data-name="Path 251" d="M120.083,4.367h4.367V8.733h-4.367Z" fill="#13770a"/>
    <path id="Path_252" data-name="Path 252" d="M124.45,8.733h4.367V13.1H124.45Z" fill="#13770a"/>
    <path id="Path_253" data-name="Path 253" d="M120.083,13.1h4.367v4.367h-4.367Z" fill="#13770a"/>
    <path id="Path_254" data-name="Path 254" d="M131,19.65h4.367v4.367H131Z" fill="#13770a"/>
    <path id="Path_255" data-name="Path 255" d="M115.717,26.2h4.367v4.367h-4.367Z" fill="#13770a"/>
    <path id="Path_256" data-name="Path 256" d="M4.367,24.017H8.733v4.367H4.367Z" fill="#13770a"/>
    <path id="Path_257" data-name="Path 257" d="M8.733,19.65H13.1v4.367H8.733Z" fill="#13770a"/>
    <path id="Path_258" data-name="Path 258" d="M13.1,24.017h4.367v4.367H13.1Z" fill="#13770a"/>
    <path id="Path_259" data-name="Path 259" d="M8.733,28.383H13.1V32.75H8.733Z" fill="#13770a"/>
    <path id="Path_260" data-name="Path 260" d="M4.367,41.483H8.733V45.85H4.367Z" fill="#13770a"/>
    <path id="Path_261" data-name="Path 261" d="M13.1,4.367h4.367V8.733H13.1Z" fill="#13770a"/>
  </g>
</svg>
