<svg xmlns="http://www.w3.org/2000/svg" xmlns:xlink="http://www.w3.org/1999/xlink" width="135" height="131" viewBox="0 0 135 131">
  
  <g id="Mask_Group_3" data-name="Mask Group 3" transform="translate(-73 -58)" clip-path="url(#clip-path)">
    <g id="loan_1_" data-name="loan (1)" transform="translate(75.88 58)">
      <path id="Path_222" data-name="Path 222" d="M129.228,100.664c0-14.16-6.7-25.362-20.472-34.227V61.784l4.159-23.695a3.361,3.361,0,0,0-3.3-4.006H90.257a3.361,3.361,0,0,0-3.3,4.013l4.2,23.7v4.644A50.455,50.455,0,0,0,78.448,77.776a29.3,29.3,0,0,0-32.971-.309,29.08,29.08,0,0,0-10.7-4.412,1.936,1.936,0,0,0-.734,3.8,25.265,25.265,0,0,1,8.194,3.133C64.578,93.346,54.5,127.1,29.213,127.1a25.279,25.279,0,0,1-17.135-6.676C-4,105.665,4.943,78.538,26.879,76.507a1.936,1.936,0,1,0-.356-3.856A29.222,29.222,0,0,0,0,101.742c0,23.287,26.033,37.277,45.472,24.284a29.283,29.283,0,0,0,34.111-1.135,18.121,18.121,0,0,0,12.135,4.642h16.334c6.2,0,11.309-3.019,15.253-7.869a1.935,1.935,0,1,0-3-2.444c-3.179,3.908-7.149,6.441-12.251,6.441H91.719a14.247,14.247,0,0,1-9.209-3.36A29.254,29.254,0,0,0,81.5,80.223l-.031-.028A47.268,47.268,0,0,1,93.664,69.433h12.6c13.026,8.25,19.1,18.179,19.1,31.231,0,4.728.252,7.863-1.494,12.414a1.935,1.935,0,1,0,3.613,1.385c2.016-5.242,1.752-8.948,1.752-13.8ZM56.371,112.558a8.8,8.8,0,0,0,3.432,1.2v1.962a1.936,1.936,0,1,0,3.872,0v-2.109c3.1-.752,4.88-3.115,4.88-6.638,0-4.978-3.463-6.311-6.249-7.379-2.2-.849-3.949-1.517-3.949-3.559,0-2.343,2.083-2.836,3.828-2.836a6.39,6.39,0,0,1,3.277.819,2.317,2.317,0,0,0,1.03.359c1,0,1.5-1.161,1.5-1.812,0-1.414-2.266-2.119-4.323-2.349V88.15a1.936,1.936,0,1,0-3.872,0v2.232a6.521,6.521,0,0,0-3.076,1.533A29.3,29.3,0,0,0,53.826,86c12.971-6.554,27.947,4.692,25.233,19.031A17.64,17.64,0,0,1,53.831,117.5a28.433,28.433,0,0,0,2.54-4.942Zm1.107-3.36a29.068,29.068,0,0,0,.962-7.43,24.2,24.2,0,0,0,2.246.978c2.41.951,4.491,1.775,4.491,4.478,0,3.006-2.458,3.456-3.921,3.456a5.008,5.008,0,0,1-3.778-1.482Zm29.6-7.438c0,19.583-21.418,31.892-38.354,21.741a27.933,27.933,0,0,0,2.776-2.846,21.519,21.519,0,0,0,31.363-14.91C86.227,87.989,67.37,74.226,51.5,82.845a28.453,28.453,0,0,0-2.772-2.854A25.364,25.364,0,0,1,87.078,101.76Zm17.807-36.2H95.037V63.566h9.849Zm.307-5.866H94.724L90.867,37.955h18.141Zm0,0" fill="#13770a"/>
      <path id="Path_223" data-name="Path 223" d="M6.447,69.11H79.3a5.426,5.426,0,0,0,5.42-5.42V25.166a5.426,5.426,0,0,0-5.42-5.42H68.188L49,8.982a6.58,6.58,0,1,0-12.251,0L17.557,19.746H6.448a5.426,5.426,0,0,0-5.42,5.42V63.69a5.426,5.426,0,0,0,5.42,5.42ZM42.872,3.871a2.71,2.71,0,1,1-2.709,2.711,2.713,2.713,0,0,1,2.709-2.711ZM39.2,12.042a6.566,6.566,0,0,0,7.338,0l13.734,7.7H25.47ZM4.9,25.166a1.55,1.55,0,0,1,1.548-1.548H79.3a1.549,1.549,0,0,1,1.548,1.548V63.691A1.549,1.549,0,0,1,79.3,65.239H6.447A1.55,1.55,0,0,1,4.9,63.691Zm0,0" fill="#13770a"/>
      <path id="Path_224" data-name="Path 224" d="M11.811,54.238h9.9c.812,0,1.217-.906,1.217-1.78,0-.9-.406-1.779-1.217-1.779H14.09V32.667c0-.875-1.029-1.249-2.029-1.249-1.029,0-2.029.375-2.029,1.249V52.958c0,.844.875,1.28,1.779,1.28Zm0,0" fill="#13770a"/>
      <path id="Path_225" data-name="Path 225" d="M31.822,54.425c4.12,0,7.336-1.935,7.336-7.148V38.568c0-5.214-3.216-7.149-7.336-7.149s-7.3,1.935-7.3,7.149v8.709C24.517,52.49,27.7,54.425,31.822,54.425ZM28.575,38.568c0-2.467,1.186-3.59,3.247-3.59,2.029,0,3.277,1.123,3.277,3.59v8.709c0,2.466-1.248,3.59-3.277,3.59-2.061,0-3.247-1.124-3.247-3.59Zm0,0" fill="#13770a"/>
      <path id="Path_226" data-name="Path 226" d="M44.964,53.427l1.186-4.152H53.3l1.186,4.152c.156.593.687.812,1.373.812,1.067,0,2.814-.734,2.5-2L52.331,32.605c-.281-.936-1.436-1.373-2.623-1.373-1.154,0-2.31.437-2.591,1.373-6.25,20.368-6.088,19.777-6.088,19.948,0,1.517,3.521,2.442,3.934.874Zm4.744-16.92,2.717,9.584H46.993Zm0,0" fill="#13770a"/>
      <path id="Path_227" data-name="Path 227" d="M64.63,52.958V40.409l6.712,12.549c1.094,2,4.371,1.418,4.371,0V32.667c0-.875-1.03-1.248-2.03-1.248-1.029,0-2.029.374-2.029,1.248V45.216L65.63,33.572c-.967-1.842-1.561-2.154-3.028-2.154-1.029,0-2.028.406-2.028,1.279v20.26c0,1.714,4.057,1.694,4.057,0Zm0,0" fill="#13770a"/>
      <path id="Path_228" data-name="Path 228" d="M28.738,110.68a5.141,5.141,0,0,1-4.047-1.742c-.42-.413-.783-.769-1.252-.769a1.84,1.84,0,0,0-1.534,1.813c0,1.379,2.052,3.3,5.38,3.777v1.964a1.935,1.935,0,1,0,3.871,0v-2.11c3.1-.753,4.88-3.116,4.88-6.637,0-8.64-10.2-6.163-10.2-10.939,0-2.344,2.081-2.835,3.827-2.835a6.394,6.394,0,0,1,3.277.82,2.327,2.327,0,0,0,1.03.358c1,0,1.5-1.161,1.5-1.812,0-1.413-2.265-2.119-4.322-2.347V88.149a1.935,1.935,0,1,0-3.871,0v2.233a5.692,5.692,0,0,0-4.822,5.9c0,7.809,10.2,5.106,10.2,10.939,0,3.006-2.456,3.456-3.92,3.456Zm0,0" fill="#13770a"/>
      <path id="Path_229" data-name="Path 229" d="M15.6,112.916a1.935,1.935,0,0,0-3,2.451,21.471,21.471,0,0,0,16.668,7.876c17.653,0,27.7-20.263,17.186-34.353A21.494,21.494,0,0,0,8.636,107.9a1.936,1.936,0,1,0,3.71-1.107,17.623,17.623,0,0,1,31-15.589c9.245,12.389-.966,30.263-16.659,27.98a17.56,17.56,0,0,1-11.1-6.269Zm0,0" fill="#13770a"/>
    </g>
  </g>
</svg>
