<svg xmlns="http://www.w3.org/2000/svg" xmlns:xlink="http://www.w3.org/1999/xlink" width="135" height="131" viewBox="0 0 135 131">
  
  <g id="Mask_Group_7" data-name="Mask Group 7" transform="translate(-73 -58)" clip-path="url(#clip-path)">
    <g id="Page-1" transform="translate(81.364 58)">
      <g id="_003---Safe" data-name="003---Safe">
        <path id="Shape" d="M9.1,117.682v4.585A8.733,8.733,0,0,0,17.831,131H39.3a8.733,8.733,0,0,0,8.733-8.733V117.9H69.867v4.367A8.733,8.733,0,0,0,78.6,131h21.469a8.733,8.733,0,0,0,8.733-8.733v-4.55a10.917,10.917,0,0,0,9.1-10.733V10.917A10.93,10.93,0,0,0,106.983,0h-95.7A10.93,10.93,0,0,0,.371,10.917V19.65a2.183,2.183,0,0,0,4.367,0V10.917a6.55,6.55,0,0,1,6.55-6.55h95.7a6.55,6.55,0,0,1,6.55,6.55v96.067a6.55,6.55,0,0,1-6.55,6.55h-95.7a6.55,6.55,0,0,1-6.55-6.55V30.567a2.183,2.183,0,0,0-4.367,0v76.417a10.936,10.936,0,0,0,8.727,10.7Zm95.337.218v4.367a4.367,4.367,0,0,1-4.367,4.367H78.6a4.367,4.367,0,0,1-4.367-4.367V117.9Zm-60.769,0v4.367a4.367,4.367,0,0,1-4.367,4.367H17.831a4.367,4.367,0,0,1-4.367-4.367V117.9Z" fill="#13770a"/>
        <path id="Shape-2" data-name="Shape" d="M17.467,74.233a2.183,2.183,0,0,0-2.183,2.183v19.65a6.55,6.55,0,0,0,6.55,6.55H96.067a6.55,6.55,0,0,0,6.55-6.55V93.883a6.55,6.55,0,0,0,6.55-6.55v-13.1a6.55,6.55,0,0,0-6.55-6.55V50.217a6.55,6.55,0,0,0,6.55-6.55v-13.1a6.55,6.55,0,0,0-6.55-6.55V21.833a6.55,6.55,0,0,0-6.55-6.55H21.833a6.55,6.55,0,0,0-6.55,6.55V65.5a2.183,2.183,0,1,0,4.367,0V21.833a2.183,2.183,0,0,1,2.183-2.183H96.067a2.183,2.183,0,0,1,2.183,2.183v2.183a6.55,6.55,0,0,0-6.55,6.55v13.1a6.55,6.55,0,0,0,6.55,6.55V67.683a6.55,6.55,0,0,0-6.55,6.55v13.1a6.55,6.55,0,0,0,6.55,6.55v2.183a2.183,2.183,0,0,1-2.183,2.183H21.833a2.183,2.183,0,0,1-2.183-2.183V76.417A2.183,2.183,0,0,0,17.467,74.233Zm78.6-30.567v-13.1a2.183,2.183,0,0,1,2.183-2.183h4.367a2.183,2.183,0,0,1,2.183,2.183v13.1a2.183,2.183,0,0,1-2.183,2.183H98.25A2.183,2.183,0,0,1,96.067,43.667Zm0,43.667v-13.1A2.183,2.183,0,0,1,98.25,72.05h4.367a2.183,2.183,0,0,1,2.183,2.183v13.1a2.183,2.183,0,0,1-2.183,2.183H98.25A2.183,2.183,0,0,1,96.067,87.333Z" fill="#13770a"/>
        <path id="Shape-3" data-name="Shape" d="M34.746,68.976a26.2,26.2,0,1,0,0-20.052,26.2,26.2,0,0,0,0,20.052ZM48.618,39.719l.795,1.917a2.183,2.183,0,1,0,4.033-1.672l-.793-1.917a21.635,21.635,0,0,1,12.593,0l-.793,1.917a2.183,2.183,0,1,0,4.033,1.672l.795-1.919a21.643,21.643,0,0,1,8.9,8.906l-1.917.795a2.183,2.183,0,1,0,1.672,4.033l1.917-.793a21.635,21.635,0,0,1,0,12.593l-1.917-.793a2.183,2.183,0,1,0-1.672,4.033l1.919.795a21.643,21.643,0,0,1-8.906,8.9l-.795-1.917a2.183,2.183,0,1,0-4.033,1.672l.793,1.917a21.635,21.635,0,0,1-12.593,0l.793-1.917a2.183,2.183,0,1,0-4.033-1.672l-.795,1.919a21.643,21.643,0,0,1-8.9-8.906l1.917-.795a2.183,2.183,0,1,0-1.672-4.033l-1.917.793a21.635,21.635,0,0,1,0-12.593l1.917.793a2.183,2.183,0,1,0,1.672-4.033l-1.919-.795a21.643,21.643,0,0,1,8.906-8.908Z" fill="#13770a"/>
        <path id="Shape-4" data-name="Shape" d="M58.967,72.05a13.1,13.1,0,1,0-12.12-8.078,13.1,13.1,0,0,0,12.12,8.078Zm-3.36-21.178A8.711,8.711,0,1,1,50.862,55.6a8.733,8.733,0,0,1,4.745-4.725Z" fill="#13770a"/>
        <path id="Shape-5" data-name="Shape" d="M37.117,24.017H26.2A2.183,2.183,0,0,0,24.017,26.2V37.117a2.183,2.183,0,0,0,4.367,0V28.383h8.733a2.183,2.183,0,0,0,0-4.367Z" fill="#13770a"/>
      </g>
    </g>
  </g>
</svg>
