<svg xmlns="http://www.w3.org/2000/svg" xmlns:xlink="http://www.w3.org/1999/xlink" width="135" height="131" viewBox="0 0 135 131">
  
  <g id="Mask_Group_4" data-name="Mask Group 4" transform="translate(-545 -58)" clip-path="url(#clip-path)">
    <g id="money-bag" transform="translate(540.5 51.5)">
      <path id="Path_230" data-name="Path 230" d="M6.75,135h72A2.25,2.25,0,0,0,81,132.75v-5.818a9.866,9.866,0,0,0-2.909-7.023L76.5,118.318V83.25A22.527,22.527,0,0,0,55.063,60.777l.77-1.924A37.135,37.135,0,0,0,58.5,45a2.25,2.25,0,0,0-2.25-2.25h-27A2.25,2.25,0,0,0,27,45a37.135,37.135,0,0,0,2.668,13.853l.77,1.924A22.527,22.527,0,0,0,9,83.25v32.818a5.4,5.4,0,0,1-1.591,3.841A9.867,9.867,0,0,0,4.5,126.932v5.818A2.25,2.25,0,0,0,6.75,135ZM53.924,47.25a32.633,32.633,0,0,1-2.27,9.931L50.227,60.75H35.273l-1.427-3.569a32.633,32.633,0,0,1-2.27-9.931ZM9,126.932a5.4,5.4,0,0,1,1.591-3.841,9.867,9.867,0,0,0,2.909-7.023V83.25a18.02,18.02,0,0,1,18-18H54a18.02,18.02,0,0,1,18,18V117H63v4.5H73.318l1.591,1.591a5.4,5.4,0,0,1,1.591,3.841V130.5H9Z" fill="#13770a"/>
      <path id="Path_231" data-name="Path 231" d="M43.747,96.75h-4.5a3.375,3.375,0,1,1,0-6.75h9V85.5h-4.5V81h-4.5v4.5a7.875,7.875,0,1,0,0,15.75h4.5a3.375,3.375,0,0,1,0,6.75H32.5v4.5h6.75v3.586h4.5V112.5a7.875,7.875,0,1,0,0-15.75Z" fill="#13770a"/>
      <path id="Path_232" data-name="Path 232" d="M137.25,76.5h-9V54h4.5A2.25,2.25,0,0,0,135,51.75v-27a2.25,2.25,0,0,0-2.25-2.25h-.006A11.191,11.191,0,0,0,135,15.75v-4.5A2.25,2.25,0,0,0,132.75,9h-18a2.25,2.25,0,0,0-2.25,2.25v4.5a6.758,6.758,0,0,1-6.75,6.75h-36a2.25,2.25,0,0,0-2.25,2.25V49.5H63a2.25,2.25,0,0,0-2.25,2.25V58.5h4.5V54h18v4.5H69.75V63h13.5v4.5H76.5V72h6.75v4.5H81V81H94.5v4.5h-9V90h9v4.5h-9V99h9v4.5H78.75V108H90v4.5H85.5V117H90v4.5H85.5V126H90v4.5H83.25V135h49.5a2.25,2.25,0,0,0,2.25-2.25V108h2.25a2.25,2.25,0,0,0,2.25-2.25v-27a2.25,2.25,0,0,0-2.25-2.25Zm-2.25,9H117V81h18ZM112.5,117h18v4.5h-18ZM117,90h18v4.5H117ZM105.75,76.5V72h18v4.5Zm18-9h-18V63h18Zm0-9h-18V54h18ZM130.5,27v4.5h-18V27Zm-18,9h18v4.5h-18Zm0,13.5V45h18v4.5ZM117,15.75V13.5h13.5v2.25a6.758,6.758,0,0,1-6.75,6.75h-9.006A11.191,11.191,0,0,0,117,15.75ZM108,27V49.5H94.5V27ZM72,27H90v4.5H76.5V36H90v4.5H76.5V45H90v4.5H72ZM87.75,54h13.5V76.5H87.75ZM99,81h13.5v22.5H99Zm-4.5,27H108v22.5H94.5Zm18,22.5V126h18v4.5Zm18-18h-18V108h18Zm-13.5-9V99h18v4.5Z" fill="#13770a"/>
    </g>
  </g>
</svg>
