<svg xmlns="http://www.w3.org/2000/svg" width="100" height="100" viewBox="0 0 149 100">
  <g id="Group_45" data-name="Group 45" transform="translate(0 0)">
    <ellipse id="Ellipse_9" data-name="Ellipse 9" cx="73" cy="22.775" rx="73" ry="22.775" transform="translate(0 32.24)" fill="#00b9ff" opacity="0.1"/>
    <g id="Group_44" data-name="Group 44" transform="translate(17.67)" opacity="0.8">
      <path id="Path_46" data-name="Path 46" d="M447.792,188.611c1.238,1.735,2.187,6.79,2.452,8.313l2.212-.045c-.115-1.308-2.688-6.63-3.4-8.091C448.654,188.725,448.229,188.664,447.792,188.611Z" transform="translate(-412.41 -183.973)" fill="#65617d"/>
      <rect id="Rectangle_20" data-name="Rectangle 20" width="1.381" height="0.98" transform="translate(7.747 4.889) rotate(-88.918)" fill="#dce0ed"/>
      <path id="Path_47" data-name="Path 47" d="M237.075,180l-.008.449a.748.748,0,0,0,.212.033l.767.008.009-.472Z" transform="translate(-229.302 -176.486)" opacity="0.1"/>
      <path id="Path_48" data-name="Path 48" d="M233.214,153.247l-.925-.017a1.11,1.11,0,0,0-1.042.674,3.142,3.142,0,0,0,.05,2.787.765.765,0,0,0,.663.4l1.181.012Z" transform="translate(-223.981 -153.228)" fill="#dce0ed"/>
      <ellipse id="Ellipse_10" data-name="Ellipse 10" cx="1.927" cy="0.991" rx="1.927" ry="0.991" transform="translate(8.169 3.854) rotate(-88.918)" fill="#f0f0f4"/>
      <rect id="Rectangle_21" data-name="Rectangle 21" width="1.209" height="0.98" transform="translate(16.454 4.898) rotate(-88.918)" fill="#dce0ed"/>
      <path id="Path_49" data-name="Path 49" d="M303.5,181.374l-.007.384a.748.748,0,0,0,.212.033l.767.008.008-.406Z" transform="translate(-287.019 -177.684)" opacity="0.1"/>
      <path id="Path_50" data-name="Path 50" d="M299.627,154.626l-.925-.017a1.11,1.11,0,0,0-1.042.674,3.142,3.142,0,0,0,.05,2.787.765.765,0,0,0,.663.4l1.181.012Z" transform="translate(-281.69 -154.426)" fill="#dce0ed"/>
      <ellipse id="Ellipse_11" data-name="Ellipse 11" cx="1.927" cy="0.991" rx="1.927" ry="0.991" transform="translate(16.873 4.035) rotate(-88.918)" fill="#f0f0f4"/>
      <path id="Path_51" data-name="Path 51" d="M309.966,160.082s.364.065.165.544a3.333,3.333,0,0,0-.233.727s-.369.183-.343-.445A.939.939,0,0,1,309.966,160.082Z" transform="translate(-292.289 -159.183)" fill="#dce0ed"/>
      <ellipse id="Ellipse_12" data-name="Ellipse 12" cx="6.337" cy="5.782" rx="6.337" ry="5.782" transform="translate(48.388 35.364) rotate(-88.918)" fill="#636780"/>
      <path id="Path_52" data-name="Path 52" d="M550.8,329.9a6.122,6.122,0,0,1,5.3,6.426,6.345,6.345,0,0,1-3.857,5.861,6.121,6.121,0,0,1-5.3-6.426A6.345,6.345,0,0,1,550.8,329.9Z" transform="translate(-498.566 -306.745)" opacity="0.1"/>
      <ellipse id="Ellipse_13" data-name="Ellipse 13" cx="6.12" cy="4.693" rx="6.12" ry="4.693" transform="translate(4.496 20.464) rotate(-88.918)" fill="#636780"/>
      <path id="Path_53" data-name="Path 53" d="M233.874,218.816c1.932.783,3.309,3.155,3.256,5.934-.056,2.97-1.726,5.414-3.888,5.93-1.932-.783-3.309-3.155-3.256-5.934C230.041,221.776,231.711,219.332,233.874,218.816Z" transform="translate(-223.148 -210.219)" opacity="0.1"/>
      <path id="Path_54" data-name="Path 54" d="M383.191,233.614l-.045-2.223s.454-.95.891-1.029,1.44-.114,1.44-.114.724,3.2.183,4.153S383.191,233.614,383.191,233.614Z" transform="translate(-356.236 -220.153)" fill="#65617d"/>
      <path id="Path_55" data-name="Path 55" d="M383.191,233.614l-.045-2.223s.454-.95.891-1.029,1.44-.114,1.44-.114.724,3.2.183,4.153S383.191,233.614,383.191,233.614Z" transform="translate(-356.236 -220.153)" opacity="0.1"/>
      <path id="Path_56" data-name="Path 56" d="M404.779,232.8s.328-3.075-1.364-3.162c-.218-.011-.435-.021-.652-.046-1.171-.136-4.365-.443-4,.3,0,0,.711,2.693.176,3.358Z" transform="translate(-369.785 -219.425)" fill="#65617d"/>
      <path id="Path_57" data-name="Path 57" d="M242.5,248.4l-2.271.022s-.313-4.188-.437-4.517-.16-1.9.269-2.119a10.926,10.926,0,0,1,1.855-.471l1,2.4.041,2.157Z" transform="translate(-231.594 -229.77)" fill="#65617d"/>
      <path id="Path_58" data-name="Path 58" d="M242.5,248.4l-2.271.022s-.313-4.188-.437-4.517-.16-1.9.269-2.119a10.926,10.926,0,0,1,1.855-.471l1,2.4.041,2.157Z" transform="translate(-231.594 -229.77)" opacity="0.1"/>
      <path id="Path_59" data-name="Path 59" d="M261.3,238.268l.019-.465a.269.269,0,0,0-.275-.279c-1.126.026-5.223.145-5.947.5,0,0,.674,5.845-.218,7.217l.206,4.676,10.041-.562Z" transform="translate(-244.779 -226.475)" fill="#65617d"/>
      <path id="Path_60" data-name="Path 60" d="M304.359,186.448c-.278-.033-.608-.069-.978-.1l-.011.557.98.018Z" transform="translate(-286.916 -182.002)" opacity="0.1"/>
      <path id="Path_61" data-name="Path 61" d="M236.934,187.768v.071l.98.018.008-.424A4.186,4.186,0,0,0,236.934,187.768Z" transform="translate(-229.186 -182.949)" opacity="0.1"/>
      <path id="Path_62" data-name="Path 62" d="M154.434,84.181l1.48.05,3.165-5.5.528-.919-.348-2.359-.312.564Z" transform="translate(-151.864 -65.561)" fill="#dce0ed"/>
      <path id="Path_63" data-name="Path 63" d="M257.6,69.941l.592.926,1.869-2.43.855-1.113-.488-.684-.392.458Z" transform="translate(-241.505 -57.905)" fill="#dce0ed"/>
      <path id="Path_64" data-name="Path 64" d="M319.111,220.326c0,.047-.007.1-.011.144l.036,1.2.855-1.113-.488-.684Z" transform="translate(-300.584 -211.134)" opacity="0.1"/>
      <path id="Path_65" data-name="Path 65" d="M188.878,76.014l.131,2.714.528-.919-.348-2.359Z" transform="translate(-181.793 -65.561)" opacity="0.1"/>
      <path id="Path_66" data-name="Path 66" d="M244.419,191.937s.834-5.447-1.812-6.314a.6.6,0,0,0-.1-.024c-.611-.086-6.309-.852-9.288-.125,0,0-2.031.267-2.03,1.356l.641,13.321,1.459.028-.313-8.806s-.624-3.845.535-4.085,6.415-.576,8.256-.018c0,0,1.356-.279,1.075,3.048l.053,1.787Z" transform="translate(-224.191 -180.978)" fill="#dce0ed"/>
      <path id="Path_67" data-name="Path 67" d="M298.024,237.355a.842.842,0,0,1,.357-.745c.414-.3,1.684-.948,1.684-.948l.408.04,1.167,3.061-.2,6.449-2.256,2.686Z" transform="translate(-282.269 -224.858)" fill="#65617d"/>
      <path id="Path_68" data-name="Path 68" d="M298.024,237.355a.842.842,0,0,1,.357-.745c.414-.3,1.684-.948,1.684-.948l.408.04,1.167,3.061-.2,6.449-2.256,2.686Z" transform="translate(-282.269 -224.858)" opacity="0.1"/>
      <path id="Path_69" data-name="Path 69" d="M320.017,240.044l.081-6.62s.245-2.566-1.29-2.638a24.9,24.9,0,0,0-5.2.439.351.351,0,0,0-.208.5c.3.551.8,2,.989,5.71l-.075,3.968Z" transform="translate(-295.592 -220.62)" fill="#65617d"/>
      <path id="Path_70" data-name="Path 70" d="M262.3,150.354l6.59-.029h.007l3.239-.014-.294-4.335-1.8.031-5.74,1.166-1.8,2.711Z" transform="translate(-245.593 -126.844)" fill="#65617d"/>
      <path id="Path_71" data-name="Path 71" d="M262.3,150.354l6.59-.029h.007l3.239-.014-.294-4.335-1.8.031-5.74,1.166-1.8,2.711Z" transform="translate(-245.593 -126.844)" opacity="0.1"/>
      <path id="Path_72" data-name="Path 72" d="M262.3,158.291l6.59-.029.163-2.9-4.749-.253-1.8,2.711Z" transform="translate(-245.593 -134.781)" fill="#65617d"/>
      <path id="Path_73" data-name="Path 73" d="M355.633,303.554l3.239-.014-.294-4.335a3.3,3.3,0,0,1-2.788,1.45Z" transform="translate(-332.329 -280.073)" fill="#fff" opacity="0.1"/>
      <path id="Path_74" data-name="Path 74" d="M177.824,349.032c.107,1.244.993,1.064.993,1.064l.165-.012,1.635-.117-.029-1.928a7.088,7.088,0,0,0-1.657.068C178.316,348.221,177.777,348.479,177.824,349.032Z" transform="translate(-177.822 -322.488)" fill="#dce0ed"/>
      <path id="Path_75" data-name="Path 75" d="M177.824,349.619c.107,1.244.993,1.064.993,1.064l.165-.012a1.668,1.668,0,0,0,.278-.927,1.569,1.569,0,0,0-.329-1.05C178.316,348.809,177.777,349.067,177.824,349.619Z" transform="translate(-177.822 -323.075)" opacity="0.1"/>
      <path id="Path_76" data-name="Path 76" d="M351.612,238.877c-.038,2.014,1.14,3.67,2.631,3.7s2.731-1.582,2.769-3.6-1.14-3.67-2.631-3.7S351.65,236.863,351.612,238.877Zm1.019.259a2.123,2.123,0,1,1,2.008,2.684,2.408,2.408,0,0,1-2.008-2.684Z" transform="translate(-328.835 -224.526)" fill="#636780"/>
      <path id="Path_77" data-name="Path 77" d="M316.64,112.226l-1.286,1.217-.436-1.119,1.849-1.032Z" transform="translate(-291.314 -96.705)" fill="#636780"/>
      <path id="Path_78" data-name="Path 78" d="M305.554,24.424l-1.1.113-.417.477.566,2.794,1.229,4.508.8,3.094.571,1.881.34,2.481.354,1.708,1.138,1.181,2.41-2.738.4-.92.963-1.876-2.375-1.166-2.624-.282-1.177-3.193L305.7,28.8Z" transform="translate(-281.858 -21.222)" fill="#00b9ff"/>
      <path id="Path_79" data-name="Path 79" d="M356.7,118.308l1.209,12.09-18.08-1.1,2.2-5.883,3.527-2.2-7.972-.02.019-3.311,3.236-.636,6.5-.4,4.882-.126,4.631,1.612" transform="translate(-311.013 -101.422)" fill="#65617d"/>
      <path id="Path_80" data-name="Path 80" d="M356.7,118.308l1.209,12.09-18.08-1.1,2.2-5.883,3.527-2.2-7.972-.02.019-3.311,3.236-.636,6.5-.4,4.882-.126,4.631,1.612" transform="translate(-311.013 -101.422)" opacity="0.1"/>
      <path id="Path_81" data-name="Path 81" d="M336.057,336.032c-.057,3,.888,5.745,3.657,5.5,3.487-.009,3.805-2.359,3.862-5.357s-1.584-5.26-3.661-5.3S336.114,333.034,336.057,336.032Z" transform="translate(-315.317 -307.591)" fill="#636780"/>
      <path id="Path_82" data-name="Path 82" d="M335.891,338.057c.044-2.321,1.088-4.163,2.521-4.858,1.816.381,3.177,2.5,3.126,5.239-.046,2.457-.269,4.478-2.267,5.133C336.716,343.614,335.836,340.952,335.891,338.057Z" transform="translate(-315.173 -309.612)" opacity="0.1"/>
      <path id="Path_83" data-name="Path 83" d="M165.519,146.055l1.04,1.237-1.907-.365-1.405-1.341-1.227-2.575-1.777-1.135-4.417.516-4.081.078-1.48-1.365,1.684-.2,1.7-.006,4.273-.016,5.085-.039.991,2.8.756,1.928Z" transform="translate(-148.241 -122.386)" fill="#00b9ff"/>
      <path id="Path_84" data-name="Path 84" d="M192.868,203.557a26.715,26.715,0,0,0,2.929.622l7.855,1.586,13.54.452,1.615-1.32.832.164.034.007,11.113,2.191.182-.023,3.048-.376,15.918-1.963-.134-2.308-.079-1.362-.164-2.828-.139-.744-1.411-.156-.659-.073-10.285-1.14-1.345-.149-.754-.083-7.341-1.14-10.739.059.019-3.311-4-13.145c-.939.135-.929.767-.929.767l3.382,12.37-.1,7.557c-7.532.617-7.743-1.025-8.943-.5l-1.35-4.621-12.63-.173C191.819,194.52,192.868,203.557,192.868,203.557Z" transform="translate(-190.307 -175.201)" fill="#65617d"/>
      <path id="Path_85" data-name="Path 85" d="M355.789,168.536l-4.169,8.525-1.358.41-.3-1.4,1.592-4.74,1.6-2.736Z" transform="translate(-321.766 -146.447)" fill="#65617d"/>
      <path id="Path_86" data-name="Path 86" d="M355.789,168.536l-4.169,8.525-1.358.41-.3-1.4,1.592-4.74,1.6-2.736Z" transform="translate(-321.766 -146.447)" opacity="0.15"/>
      <ellipse id="Ellipse_14" data-name="Ellipse 14" cx="8.232" cy="7.257" rx="8.232" ry="7.257" transform="translate(29.041 39.704) rotate(-88.918)" fill="#636780"/>
      <path id="Path_87" data-name="Path 87" d="M405.177,335.156c3.792.336,6.732,3.969,6.65,8.343a8.263,8.263,0,0,1-4.846,7.616c-3.792-.336-6.732-3.969-6.65-8.343A8.263,8.263,0,0,1,405.177,335.156Z" transform="translate(-371.167 -311.312)" opacity="0.1"/>
      <path id="Path_88" data-name="Path 88" d="M606.436,287.4l.327,1.7,1,5.208,4.734-.368s.3-.865-.435-1.206c0,0-.187-2.953-1.043-3.9a.888.888,0,0,0-.338-.246Z" transform="translate(-550.262 -269.813)" fill="#65617d"/>
      <path id="Path_89" data-name="Path 89" d="M608.933,298.623l1,5.208,4.734-.368s.3-.865-.435-1.206c0,0-.187-2.953-1.043-3.9Z" transform="translate(-552.432 -279.338)" fill="#fff" opacity="0.1"/>
      <path id="Path_90" data-name="Path 90" d="M399.656,263.334c-.629,1.011.673,10.468.673,10.468l11.642-1.7-.258-8.26c-.212-1.485-1.079-1.676-1.079-1.676-4.055-2.146-13.453-2.759-13.453-2.759a68.855,68.855,0,0,0-16.45,2.543A51.081,51.081,0,0,1,399.656,263.334Z" transform="translate(-354.139 -245.493)" fill="#65617d"/>
      <path id="Path_91" data-name="Path 91" d="M524.663,290.649l11.642-1.7-.258-8.26c-.212-1.485-1.079-1.676-1.079-1.676s-8.455-.966-10.979,1.165C523.361,281.192,524.663,290.649,524.663,290.649Z" transform="translate(-478.472 -262.34)" opacity="0.1"/>
      <path id="Path_92" data-name="Path 92" d="M535.04,298.193l9.735-1.452-.213-7.047c-.177-1.267-.9-1.429-.9-1.429s-7.069-.822-9.18,1C533.954,290.125,535.04,298.193,535.04,298.193Z" transform="translate(-487.612 -270.405)" fill="#65617d"/>
      <ellipse id="Ellipse_15" data-name="Ellipse 15" cx="2.417" cy="1.328" rx="2.417" ry="1.328" transform="translate(46.962 24.403) rotate(-88.918)" opacity="0.1"/>
      <ellipse id="Ellipse_16" data-name="Ellipse 16" cx="2.417" cy="1.328" rx="2.417" ry="1.328" transform="translate(46.963 24.337) rotate(-88.918)" fill="#dce0ed"/>
      <path id="Path_93" data-name="Path 93" d="M541.5,307.022s.543.1.246.811a4.966,4.966,0,0,0-.347,1.083s-.55.273-.51-.663A1.4,1.4,0,0,1,541.5,307.022Z" transform="translate(-493.305 -286.865)" fill="#f0f0f4"/>
      <ellipse id="Ellipse_17" data-name="Ellipse 17" cx="2.259" cy="1.241" rx="2.259" ry="1.241" transform="translate(54.19 23.422) rotate(-88.918)" opacity="0.1"/>
      <ellipse id="Ellipse_18" data-name="Ellipse 18" cx="2.259" cy="1.241" rx="2.259" ry="1.241" transform="translate(54.191 23.357) rotate(-88.918)" fill="#dce0ed"/>
      <path id="Path_94" data-name="Path 94" d="M595.967,300.738s.543.1.246.811a4.963,4.963,0,0,0-.347,1.083s-.55.273-.51-.663A1.4,1.4,0,0,1,595.967,300.738Z" transform="translate(-540.633 -281.405)" fill="#f0f0f4"/>
      <path id="Path_95" data-name="Path 95" d="M558.551,299.6c.07.895.381,7.522.381,7.522l.741-.11.412-.06.549-.081.066-.01,2.163-.319-.293-7.03a.88.88,0,0,0-.873-.843l-.066,0c-.149.01-.31.023-.478.038l-.215.021c-.208.021-.422.047-.632.078-.107.016-.213.033-.317.052-.176.032-.347.067-.5.108-.107.027-.209.057-.3.09C558.79,299.2,558.532,299.373,558.551,299.6Z" transform="translate(-508.652 -279.612)" opacity="0.1"/>
      <path id="Path_96" data-name="Path 96" d="M582.559,298.674l.273,7.9.24-.017-.27-7.847A.885.885,0,0,0,582.559,298.674Z" transform="translate(-529.515 -279.611)" fill="#65617d"/>
      <path id="Path_97" data-name="Path 97" d="M576.772,299l.245,7.976.37.007-.4-8Z" transform="translate(-524.486 -279.877)" fill="#65617d"/>
      <path id="Path_98" data-name="Path 98" d="M569.528,299.781l.472,8.008.24,0v-.011l-.394-8.053Q569.684,299.754,569.528,299.781Z" transform="translate(-518.191 -280.529)" fill="#65617d"/>
      <path id="Path_99" data-name="Path 99" d="M563.372,301.038l.491,7.954v.015l.414-.036,0-.039-.6-7.984C563.567,300.975,563.465,301.005,563.372,301.038Z" transform="translate(-512.842 -281.587)" fill="#65617d"/>
      <path id="Path_100" data-name="Path 100" d="M572.745,320.421s.878-4.117-.947-4.363-7.843.081-7.7,1.782.295,4.286.295,4.286l1.246-.254s-.857-3.9.6-4.024,5.024-.461,5.024-.461.967-.145.347,3.258Z" transform="translate(-513.475 -294.653)" opacity="0.1"/>
      <path id="Path_101" data-name="Path 101" d="M572.72,321.679s.883-4.378-.942-4.625-7.843.081-7.7,1.782.295,4.286.295,4.286l1.246-.254s-.858-3.9.6-4.024,5.024-.461,5.024-.461.962.116.342,3.519Z" transform="translate(-513.458 -295.52)" fill="#dce0ed"/>
      <path id="Path_102" data-name="Path 102" d="M382.957,313.99l1.611.008a31.115,31.115,0,0,1,3.273-8.346c.66-.336,7.8-.158,7.8-.158.738.145.89,2.5.89,2.5s-.642.532-.039.893a6.038,6.038,0,0,0,2.2.173,17.38,17.38,0,0,0,3.556-.435c1.4-.409.307-1.236.307-1.236a4.327,4.327,0,0,1-.295-1.7,5.811,5.811,0,0,0-.75-2.387c-.058-.1-.1-.156-.1-.156a.754.754,0,0,0-.252-.164c-1.831-.806-10.893-.242-10.893-.242l-3.373,1c-.093.035-.241.269-.424.643C385.37,306.636,382.957,313.99,382.957,313.99Z" transform="translate(-356.072 -282.974)" fill="#65617d"/>
      <path id="Path_103" data-name="Path 103" d="M382.957,313.99l1.611.008a31.115,31.115,0,0,1,3.273-8.346c.66-.336,7.8-.158,7.8-.158.738.145.89,2.5.89,2.5s-.642.532-.039.893a6.038,6.038,0,0,0,2.2.173,17.38,17.38,0,0,0,3.556-.435c1.4-.409.307-1.236.307-1.236a4.327,4.327,0,0,1-.295-1.7,5.811,5.811,0,0,0-.75-2.387c-.058-.1-.1-.156-.1-.156a.754.754,0,0,0-.252-.164c-1.831-.806-10.893-.242-10.893-.242l-3.373,1c-.093.035-.241.269-.424.643C385.37,306.636,382.957,313.99,382.957,313.99Z" transform="translate(-356.072 -282.974)" opacity="0.1"/>
      <path id="Path_104" data-name="Path 104" d="M409.78,304.384c3.118-1.144,11.637-.345,11.637-.345a5.538,5.538,0,0,1,3.4-.74c-.058-.1-.1-.156-.1-.156a.755.755,0,0,0-.252-.164c-1.831-.806-10.893-.242-10.893-.242l-3.373,1C410.111,303.776,409.964,304.01,409.78,304.384Z" transform="translate(-379.38 -282.975)" fill="#65617d"/>
      <path id="Path_105" data-name="Path 105" d="M494.664,307.233c.183.678.938,3.394.938,3.394a11.479,11.479,0,0,1,.152,1.311,17.377,17.377,0,0,0,3.557-.435c1.4-.409.307-1.236.307-1.236a4.327,4.327,0,0,1-.295-1.7,5.786,5.786,0,0,0-.845-2.543.754.754,0,0,0-.252-.164C497.01,306.118,494.525,306.719,494.664,307.233Z" transform="translate(-453.134 -285.851)" fill="#65617d"/>
      <path id="Path_106" data-name="Path 106" d="M494.664,307.233c.183.678.938,3.394.938,3.394a11.479,11.479,0,0,1,.152,1.311,17.377,17.377,0,0,0,3.557-.435c1.4-.409.307-1.236.307-1.236a4.327,4.327,0,0,1-.295-1.7,5.786,5.786,0,0,0-.845-2.543.754.754,0,0,0-.252-.164C497.01,306.118,494.525,306.719,494.664,307.233Z" transform="translate(-453.134 -285.851)" fill="#fff" opacity="0.1"/>
      <path id="Path_107" data-name="Path 107" d="M350.217,174.7l4,13.145,16.676-2.413-2.2-7.9s-.342-1.8-1.2-1.95C367.484,175.583,354.153,173.012,350.217,174.7Zm1.856,2.061c-.538-1.774,7.385-.89,7.385-.89a19,19,0,0,1,3.547.152c.437.053.862.114,1.26.177.888.14,1.642.288,2.093.383.287.06.452.1.452.1,1.575.52,2.35,7.069,2.35,7.069.118.688-.7.526-.7.526h-.053l-.742.015-2.212.045-10.786.218c-.636-.077-.719-.83-.719-.83-.333-.545-1.878-6.962-1.878-6.962Z" transform="translate(-327.623 -171.387)" fill="#65617d"/>
      <path id="Path_108" data-name="Path 108" d="M475.432,200.572h.053s.814.162.7-.526c0,0-.775-6.549-2.35-7.069,0,0-.165-.038-.452-.1C473.934,194.011,475.707,197.889,475.432,200.572Z" transform="translate(-434.644 -187.681)" fill="#65617d"/>
      <path id="Path_109" data-name="Path 109" d="M475.432,200.572h.053s.814.162.7-.526c0,0-.775-6.549-2.35-7.069,0,0-.165-.038-.452-.1C473.934,194.011,475.707,197.889,475.432,200.572Z" transform="translate(-434.644 -187.681)" opacity="0.1"/>
      <path id="Path_110" data-name="Path 110" d="M474.9,354.749a1.051,1.051,0,0,0,.974.571l.333-.008,3.142-.076,1.132-.028,1.047-.067,13.844-1.979-.079-1.362-1.592.2-.658.082-9.771,1.21-1.286.159-.624.077-2.635-.069-2.852-.075a1.076,1.076,0,0,0-.422.073,1.025,1.025,0,0,0-.563.515A.861.861,0,0,0,474.9,354.749Z" transform="translate(-435.882 -325.775)" opacity="0.1"/>
      <path id="Path_111" data-name="Path 111" d="M474.883,344.913a1.051,1.051,0,0,0,.974.571l4.607-.112,1.047-.067,14.763-2.11,1.16-.166.632-.091a1.145,1.145,0,0,0,.9-1.486c-.076-.568-2.2-1.131-2.9-1.122-.469.006-.548.726-.549,1.2,0,.231.017.4.017.4l-.69.086-13.5,1.672-5.487-.144a1.054,1.054,0,0,0-.985.588A.86.86,0,0,0,474.883,344.913Z" transform="translate(-435.865 -315.809)" fill="#dce0ed"/>
      <path id="Path_112" data-name="Path 112" d="M634.645,346.456a2.526,2.526,0,0,1-1.518.8A1.645,1.645,0,0,1,634.645,346.456Z" transform="translate(-573.455 -321.131)" opacity="0.1"/>
      <path id="Path_113" data-name="Path 113" d="M497.444,361.929s1.939-.007,1.919,1.038-1.242,1.2-1.242,1.2l-17.373,3-4.923-.006s-1.694-1.4.1-1.98l4.962.224,16.562-2.715S497.027,362.1,497.444,361.929Z" transform="translate(-436.14 -334.576)" opacity="0.1"/>
      <path id="Path_114" data-name="Path 114" d="M475.806,368.16l4.922.006,15.448-2.672,1.13-.2.8-.137s1.223-.151,1.243-1.2c.014-.75-.981-.958-1.544-1.016-.221-.022-.375-.022-.375-.022-.417.166.008.762.008.762l-.6.1L480.871,366.4l-4.962-.224C474.112,366.756,475.806,368.16,475.806,368.16Z" transform="translate(-436.124 -335.444)" fill="#dce0ed"/>
      <path id="Path_115" data-name="Path 115" d="M624.12,351.869l-1.015-.477-.522-.032-.039,4.4,1.617-.3.683-.423.361-1.823a4.95,4.95,0,0,0-.18-.831C624.961,352.321,624.12,351.869,624.12,351.869Z" transform="translate(-564.259 -325.393)" fill="#dce0ed"/>
      <path id="Path_116" data-name="Path 116" d="M624.12,351.869l-1.015-.477-.522-.032-.039,4.4,1.617-.3.683-.423.361-1.823a4.95,4.95,0,0,0-.18-.831C624.961,352.321,624.12,351.869,624.12,351.869Z" transform="translate(-564.259 -325.393)" opacity="0.1"/>
      <path id="Path_117" data-name="Path 117" d="M635.9,365.495l-.019.022,1.136-.2.013-.021a2.759,2.759,0,0,0,.494-2.35c-.221-.022-.375-.022-.375-.022-.417.166.008.762.008.762l-.6.1A2.754,2.754,0,0,1,635.9,365.495Z" transform="translate(-575.85 -335.444)" opacity="0.1"/>
      <path id="Path_118" data-name="Path 118" d="M623.84,349.392q.285.116.527.239a3.466,3.466,0,0,1,1.427,1.177l1.16-.166a3.528,3.528,0,0,0-1.671-1.55l-.243.05Z" transform="translate(-565.385 -323.422)" opacity="0.1"/>
      <path id="Path_119" data-name="Path 119" d="M624.288,349.076s3.155,1.323,1.271,4.206l-1.136.2s2.291-2.527-1.578-4.1Z" transform="translate(-564.52 -323.408)" fill="#dce0ed"/>
      <path id="Path_120" data-name="Path 120" d="M525.046,205.118l-1.175-.066.107,4.729,1.9-.313.813-.377.388-.929.279-.931-.615-.861-.71-.493Z" transform="translate(-472.883 -178.177)" fill="#dce0ed"/>
      <path id="Path_121" data-name="Path 121" d="M525.046,205.118l-1.175-.066.107,4.729,1.9-.313.813-.377.388-.929.279-.931-.615-.861-.71-.493Z" transform="translate(-472.883 -178.177)" opacity="0.1"/>
      <ellipse id="Ellipse_19" data-name="Ellipse 19" cx="0.958" cy="0.566" rx="0.958" ry="0.566" transform="translate(51.663 30.329) rotate(-88.918)" fill="#dce0ed"/>
      <path id="Path_122" data-name="Path 122" d="M610.264,382.631a.307.307,0,0,1,.146.432,2.159,2.159,0,0,0-.28.628c.022.139-.286.019-.326-.014s-.6-.011-.63-.4a.665.665,0,0,1,.313-.582l-.115-.844.777-.051-.023.767Z" transform="translate(-552.642 -351.846)" fill="#636780"/>
      <path id="Path_123" data-name="Path 123" d="M610.264,382.631a.307.307,0,0,1,.146.432,2.159,2.159,0,0,0-.28.628c.022.139-.286.019-.326-.014s-.6-.011-.63-.4a.665.665,0,0,1,.313-.582l-.115-.844.777-.051-.023.767Z" transform="translate(-552.642 -351.846)" opacity="0.1"/>
      <path id="Path_124" data-name="Path 124" d="M614.608,387.96s-.278.893-.164.928S614.608,387.96,614.608,387.96Z" transform="translate(-557.196 -357.195)" opacity="0.1"/>
      <path id="Path_125" data-name="Path 125" d="M612.395,386.3s-.278.893-.165.928S612.395,386.3,612.395,386.3Z" transform="translate(-555.273 -355.75)" opacity="0.1"/>
      <path id="Path_126" data-name="Path 126" d="M590.173,360.806l.385,2.709s.54-.064.839-.122a.6.6,0,0,0,.188-.055c.015-.015.047-.013.09,0h0c.145.032.4.157.453.057a.094.094,0,0,1,.015-.021h0c.052-.055.151-.012.246,0a.209.209,0,0,0,.153-.017c.081-.052.242.037.375.068.084.02.156.017.191-.058a.177.177,0,0,1,.132-.09h0c.126-.029.3,0,.4-.024.04-.007.068-.022.077-.049.021-.058.134-.084.254-.1.146-.025.3-.043.316-.1,0-.02.018-.028.04-.028a1.311,1.311,0,0,1,.237.063h0c.065.018.119.019.136-.027s.093-.044.178-.021c.069.018.145.047.2.061s.091.015.1-.009c.023-.086.3.115.371-.058a2.327,2.327,0,0,0-.143-2.834s-.313.016-.552.054a.86.86,0,0,0-.231.06h0a1.34,1.34,0,0,1-.42.04.547.547,0,0,0-.235.051.152.152,0,0,0-.067.069c-.038.082-.122.1-.213.091-.123-.009-.26-.059-.31-.035l0,0c-.092.037-.433-.007-.492.049l0,.005c-.025.036-.159,0-.295-.026h0a.333.333,0,0,0-.271.037.3.3,0,0,1-.213.059,1.226,1.226,0,0,0-.277.006.111.111,0,0,0-.056.034c-.057.068-.189.056-.308.06a.312.312,0,0,0-.174.04.156.156,0,0,1-.063.025,1.87,1.87,0,0,1-.525-.036Z" transform="translate(-536.131 -333.025)" fill="#636780"/>
      <path id="Path_127" data-name="Path 127" d="M624.435,363.344c.069.018.145.047.2.061a2.15,2.15,0,0,0-.226-2.848.861.861,0,0,0-.231.06A2.638,2.638,0,0,1,624.435,363.344Z" transform="translate(-565.682 -333.384)" opacity="0.1"/>
      <path id="Path_128" data-name="Path 128" d="M619.517,364a1.314,1.314,0,0,1,.237.063h0a2.151,2.151,0,0,0-.363-2.733.548.548,0,0,0-.235.051A2.556,2.556,0,0,1,619.517,364Z" transform="translate(-561.316 -334.06)" opacity="0.1"/>
      <path id="Path_129" data-name="Path 129" d="M614.885,365.408c.04-.007.068-.022.077-.049.021-.058.134-.084.254-.1a2.12,2.12,0,0,0-.284-2.589c-.123-.01-.26-.059-.31-.035l0,0A2.641,2.641,0,0,1,614.885,365.408Z" transform="translate(-557.371 -335.179)" opacity="0.1"/>
      <path id="Path_130" data-name="Path 130" d="M608.908,365.821c.084.02.156.017.191-.058a.177.177,0,0,1,.132-.09h0a2.151,2.151,0,0,0-.357-2.751l0,.005c-.026.036-.159,0-.295-.026A2.633,2.633,0,0,1,608.908,365.821Z" transform="translate(-552.121 -335.421)" opacity="0.1"/>
      <path id="Path_131" data-name="Path 131" d="M603.078,366.369c.052-.055.151-.012.246,0a2.146,2.146,0,0,0-.291-2.773,1.226,1.226,0,0,0-.277.006A2.607,2.607,0,0,1,603.078,366.369Z" transform="translate(-547.065 -336.024)" opacity="0.1"/>
      <path id="Path_132" data-name="Path 132" d="M598.351,367.079a.6.6,0,0,0,.189-.055c.015-.015.047-.013.09,0h0a2.119,2.119,0,0,0-.216-2.635.313.313,0,0,0-.174.04.154.154,0,0,1-.063.025A2.673,2.673,0,0,1,598.351,367.079Z" transform="translate(-543.085 -336.71)" opacity="0.1"/>
      <ellipse id="Ellipse_20" data-name="Ellipse 20" cx="5.227" cy="3.55" rx="5.227" ry="3.55" transform="translate(30.472 37.117) rotate(-88.918)" fill="#636780"/>
      <ellipse id="Ellipse_21" data-name="Ellipse 21" cx="4.236" cy="2.581" rx="4.236" ry="2.581" transform="translate(31.578 36.223) rotate(-88.918)" opacity="0.1"/>
      <ellipse id="Ellipse_22" data-name="Ellipse 22" cx="4.236" cy="2.581" rx="4.236" ry="2.581" transform="translate(31.581 36.092) rotate(-88.918)" fill="#f0f0f4"/>
      <ellipse id="Ellipse_23" data-name="Ellipse 23" cx="0.523" cy="0.305" rx="0.523" ry="0.305" transform="translate(33.512 29.573) rotate(-88.918)" fill="#636780"/>
      <ellipse id="Ellipse_24" data-name="Ellipse 24" cx="0.523" cy="0.305" rx="0.523" ry="0.305" transform="translate(32.206 34.122) rotate(-88.918)" fill="#636780"/>
      <ellipse id="Ellipse_25" data-name="Ellipse 25" cx="0.523" cy="0.305" rx="0.523" ry="0.305" transform="translate(35.535 32.007) rotate(-88.918)" fill="#636780"/>
      <ellipse id="Ellipse_26" data-name="Ellipse 26" cx="0.523" cy="0.305" rx="0.523" ry="0.305" transform="translate(34.585 35.038) rotate(-88.918)" fill="#636780"/>
      <path id="Path_133" data-name="Path 133" d="M214.766,319.558s-2.676,6.745-2.553,7.173c0,0-1.09.633-1.348.465s.027-3.169.027-3.169l.54-2.636.585-1.557Z" transform="translate(-206.44 -297.758)" fill="#65617d"/>
      <path id="Path_134" data-name="Path 134" d="M214.766,319.558s-2.676,6.745-2.553,7.173c0,0-1.09.633-1.348.465s.027-3.169.027-3.169l.54-2.636.585-1.557Z" transform="translate(-206.44 -297.758)" opacity="0.15"/>
      <ellipse id="Ellipse_27" data-name="Ellipse 27" cx="0.523" cy="0.305" rx="0.523" ry="0.305" transform="translate(31.824 31.283) rotate(-88.918)" fill="#636780"/>
      <ellipse id="Ellipse_28" data-name="Ellipse 28" cx="1.241" cy="0.893" rx="1.241" ry="0.893" transform="translate(32.853 33.285) rotate(-88.918)" fill="#636780"/>
      <path id="Path_135" data-name="Path 135" d="M218.34,343.568c-.074,3.932,1.165,7.537,4.8,7.213,4.574-.012,4.992-3.095,5.066-7.027s-2.079-6.9-4.8-6.952S218.415,339.635,218.34,343.568Z" transform="translate(-213.027 -312.741)" fill="#636780"/>
      <path id="Path_136" data-name="Path 136" d="M218.122,346.223c.058-3.044,1.427-5.461,3.307-6.373,2.382.5,4.168,3.284,4.1,6.872-.061,3.223-.353,5.874-2.974,6.733C219.2,353.513,218.05,350.021,218.122,346.223Z" transform="translate(-212.838 -315.391)" opacity="0.1"/>
      <path id="Path_137" data-name="Path 137" d="M203.9,316.652s.643.568,1.009.182c0,0,1.015-7.038,2.126-7.05l3.822.039a1.423,1.423,0,0,1,.633,1.057l2.338,7.08,13.54.452,1.075-2.147-11.2-.179v-.005c-.057-.218-1.8-6.937-3.044-7.792h0a.548.548,0,0,0-.137-.07s-4.659-.709-6.2-.313a5.133,5.133,0,0,0-2.008.812l0,0a4.721,4.721,0,0,0-.9,2.691Z" transform="translate(-200.48 -287.528)" opacity="0.1"/>
      <path id="Path_138" data-name="Path 138" d="M203.879,317.649s.643.568,1.009.182c0,0,1.015-7.038,2.126-7.05l3.822.04a1.423,1.423,0,0,1,.633,1.057l2.338,7.08,13.54.452,1.075-2.147-11.2-.179v-.005c-.057-.218-1.8-6.937-3.044-7.793h0a.545.545,0,0,0-.137-.07s-4.659-.709-6.2-.313a5.132,5.132,0,0,0-2.008.812l0,0a4.722,4.722,0,0,0-.9,2.691Z" transform="translate(-200.464 -288.394)" fill="#65617d"/>
      <path id="Path_139" data-name="Path 139" d="M203.879,317.649s.643.568,1.009.182c0,0,1.015-7.038,2.126-7.05l3.822.04a1.423,1.423,0,0,1,.633,1.057l2.338,7.08,13.54.452,1.075-2.147-11.2-.179v-.005c-.057-.218-1.8-6.937-3.044-7.793h0a.545.545,0,0,0-.137-.07s-4.659-.709-6.2-.313a5.132,5.132,0,0,0-2.008.812l0,0a4.722,4.722,0,0,0-.9,2.691Z" transform="translate(-200.464 -288.394)" opacity="0.1"/>
      <path id="Path_140" data-name="Path 140" d="M268.128,313.433c.315.627,2.979,8.323,2.979,8.323l1.92-1.336v-.005c-.057-.218-1.8-6.944-3.046-7.794C269.16,312.744,267.914,313.007,268.128,313.433Z" transform="translate(-256.272 -291.729)" fill="#65617d"/>
      <path id="Path_141" data-name="Path 141" d="M206.822,292.154l1.44,5.059,8.006-.078-.08.75s-6.288.8-8.943-.5l-1.35-4.622-12.63-.173,2.417-.521Z" transform="translate(-191.241 -273.876)" fill="#65617d"/>
      <path id="Path_142" data-name="Path 142" d="M206.822,292.154l1.44,5.059,8.006-.078-.08.75s-6.288.8-8.943-.5l-1.35-4.622-12.63-.173,2.417-.521Z" transform="translate(-191.241 -273.876)" fill="#fff" opacity="0.1"/>
      <path id="Path_143" data-name="Path 143" d="M569.7,358.335s4.249,2.237,1.031,4.2l-.853.18s3.156-2.184-2.008-4.416Z" transform="translate(-516.749 -331.423)" opacity="0.1"/>
      <path id="Path_144" data-name="Path 144" d="M568.7,358.316s4.249,2.237,1.031,4.2l-.853.18s3.156-2.184-2.008-4.416Z" transform="translate(-515.883 -331.407)" fill="#dce0ed"/>
      <ellipse id="Ellipse_29" data-name="Ellipse 29" cx="4.083" cy="2.385" rx="4.083" ry="2.385" transform="translate(5.879 35.476) rotate(-88.918)" fill="#636780"/>
      <ellipse id="Ellipse_30" data-name="Ellipse 30" cx="3.309" cy="1.734" rx="3.309" ry="1.734" transform="translate(6.623 34.804) rotate(-88.918)" opacity="0.1"/>
      <ellipse id="Ellipse_31" data-name="Ellipse 31" cx="3.309" cy="1.734" rx="3.309" ry="1.734" transform="translate(6.625 34.674) rotate(-88.918)" fill="#f0f0f4"/>
      <ellipse id="Ellipse_32" data-name="Ellipse 32" cx="0.408" cy="0.205" rx="0.408" ry="0.205" transform="translate(7.936 29.576) rotate(-88.918)" fill="#636780"/>
      <ellipse id="Ellipse_33" data-name="Ellipse 33" cx="0.408" cy="0.205" rx="0.408" ry="0.205" transform="translate(7.049 33.133) rotate(-88.918)" fill="#636780"/>
      <ellipse id="Ellipse_34" data-name="Ellipse 34" cx="0.408" cy="0.205" rx="0.408" ry="0.205" transform="translate(9.29 31.474) rotate(-88.918)" fill="#636780"/>
      <ellipse id="Ellipse_35" data-name="Ellipse 35" cx="0.408" cy="0.205" rx="0.408" ry="0.205" transform="translate(8.646 33.844) rotate(-88.918)" fill="#636780"/>
      <ellipse id="Ellipse_36" data-name="Ellipse 36" cx="0.408" cy="0.205" rx="0.408" ry="0.205" transform="translate(6.799 30.916) rotate(-88.918)" fill="#636780"/>
      <ellipse id="Ellipse_37" data-name="Ellipse 37" cx="0.97" cy="0.6" rx="0.97" ry="0.6" transform="translate(7.486 32.478) rotate(-88.918)" fill="#636780"/>
      <path id="Path_145" data-name="Path 145" d="M397.443,259.531a80.875,80.875,0,0,0-16.711,2.527Z" transform="translate(-354.139 -245.598)" opacity="0.1"/>
      <path id="Path_146" data-name="Path 146" d="M243.161,157.693s.393.07.178.586a3.591,3.591,0,0,0-.251.783s-.4.2-.369-.48A1.011,1.011,0,0,1,243.161,157.693Z" transform="translate(-234.212 -157.107)" fill="#dce0ed"/>
      <path id="Path_147" data-name="Path 147" d="M319.533,99.18l.578,2.3,1.991-1.745" transform="translate(-295.325 -86.181)" fill="none" stroke="#000" stroke-miterlimit="10" stroke-width="1"/>
      <rect id="Rectangle_22" data-name="Rectangle 22" width="5.973" height="5.87" transform="translate(21.761 14.699) rotate(9.739)" fill="#fff"/>
      <path id="Path_148" data-name="Path 148" d="M351.46,276.337l.111-.645a1.888,1.888,0,0,1-.929-.449l.227-.4a2,2,0,0,0,.946.445.681.681,0,0,0,.868-.5c.06-.351-.152-.611-.591-.884-.608-.367-.887-.718-.791-1.273a1.03,1.03,0,0,1,1.1-.869l.111-.645.323.055-.106.62a1.729,1.729,0,0,1,.792.366l-.232.394a1.408,1.408,0,0,0-.731-.349c-.492-.084-.655.19-.7.446-.057.332.078.526.594.852.612.381.96.783.862,1.351a1.127,1.127,0,0,1-1.2.913l-.114.664Z" transform="translate(-327.992 -255.668)" fill="#636780"/>
      <path id="Path_149" data-name="Path 149" d="M354.863,468.289a.2.2,0,1,0-.19-.2A.2.2,0,0,0,354.863,468.289Z" transform="translate(-331.495 -426.655)" fill="#65617d"/>
    </g>
    <ellipse id="Ellipse_38" data-name="Ellipse 38" cx="2.448" cy="0.414" rx="2.448" ry="0.414" transform="translate(84.563 58.778)" fill="#00b9ff" opacity="0.1"/>
    <path id="Path_150" data-name="Path 150" d="M694.365,585.189a5.12,5.12,0,0,0,1.817-.343c.421-.3,2.148-.657,2.252-.177s2.1,2.39.522,2.4a13.349,13.349,0,0,1-4.083-.5C694.453,586.315,694.365,585.189,694.365,585.189Z" transform="translate(-608.998 -527.92)" fill="#a8a8a8"/>
    <path id="Path_151" data-name="Path 151" d="M698.984,591.895a13.351,13.351,0,0,1-4.083-.5c-.32-.195-.447-.894-.49-1.216l-.047,0s.088,1.126.508,1.382a13.351,13.351,0,0,0,4.083.5c.455,0,.612-.166.6-.405C699.5,591.8,699.322,591.892,698.984,591.895Z" transform="translate(-608.997 -532.91)" opacity="0.2"/>
    <ellipse id="Ellipse_39" data-name="Ellipse 39" cx="1.884" cy="0.318" rx="1.884" ry="0.318" transform="translate(99.325 54.052)" fill="#00b9ff" opacity="0.1"/>
    <path id="Path_152" data-name="Path 152" d="M805.583,552.935a3.939,3.939,0,0,0,1.4-.264c.324-.231,1.653-.506,1.733-.136s1.615,1.839.4,1.849a10.272,10.272,0,0,1-3.142-.386C805.651,553.8,805.583,552.935,805.583,552.935Z" transform="translate(-705.64 -500.044)" fill="#a8a8a8"/>
    <path id="Path_153" data-name="Path 153" d="M809.138,558.095a10.273,10.273,0,0,1-3.142-.386c-.246-.15-.344-.688-.377-.936h-.036s.068.867.391,1.063a10.273,10.273,0,0,0,3.142.386c.35,0,.471-.127.464-.312C809.532,558.023,809.4,558.093,809.138,558.095Z" transform="translate(-705.64 -503.884)" opacity="0.2"/>
    <ellipse id="Ellipse_40" data-name="Ellipse 40" cx="4.497" cy="0.76" rx="4.497" ry="0.76" transform="translate(88.166 73.74)" fill="#00b9ff" opacity="0.1"/>
    <path id="Path_154" data-name="Path 154" d="M726.986,685.528s2.565-.079,3.338-.629,3.945-1.208,4.137-.325,3.855,4.391.959,4.414-6.728-.451-7.5-.921S726.986,685.528,726.986,685.528Z" transform="translate(-637.343 -614.56)" fill="#a8a8a8"/>
    <path id="Path_155" data-name="Path 155" d="M735.472,697.847c-2.9.023-6.728-.451-7.5-.921-.588-.358-.822-1.642-.9-2.235l-.086,0s.162,2.069.934,2.539,4.6.944,7.5.921c.836-.007,1.125-.3,1.109-.745C736.413,697.675,736.094,697.842,735.472,697.847Z" transform="translate(-637.344 -623.727)" opacity="0.2"/>
    <path id="Path_156" data-name="Path 156" d="M957.039,439.877a11.708,11.708,0,0,1-23.372,1c-.017-.19-.03-.38-.036-.573v-.01q-.009-.211-.009-.421a11.708,11.708,0,1,1,23.416,0Z" transform="translate(-816.899 -392.135)" fill="#65617d"/>
    <path id="Path_157" data-name="Path 157" d="M957.039,439.877a11.708,11.708,0,0,1-23.372,1c-.017-.19-.03-.38-.036-.573v-.01q-.009-.211-.009-.421a11.708,11.708,0,1,1,23.416,0Z" transform="translate(-816.899 -392.135)" opacity="0.2"/>
    <circle id="Ellipse_41" data-name="Ellipse 41" cx="6.386" cy="6.386" r="6.386" transform="translate(122.046 41.356)" fill="#dce0ed"/>
    <circle id="Ellipse_42" data-name="Ellipse 42" cx="3.832" cy="3.832" r="3.832" transform="translate(124.6 43.911)" fill="#65617d"/>
    <path id="Path_158" data-name="Path 158" d="M480.127,439.877a11.708,11.708,0,0,1-23.372,1c-.017-.19-.03-.38-.035-.573v-.01q-.009-.211-.008-.421a11.708,11.708,0,1,1,23.416,0Z" transform="translate(-402.491 -392.135)" fill="#65617d"/>
    <path id="Path_159" data-name="Path 159" d="M480.127,439.877a11.708,11.708,0,0,1-23.372,1c-.017-.19-.03-.38-.035-.573v-.01q-.009-.211-.008-.421a11.708,11.708,0,1,1,23.416,0Z" transform="translate(-402.491 -392.135)" opacity="0.2"/>
    <circle id="Ellipse_43" data-name="Ellipse 43" cx="6.386" cy="6.386" r="6.386" transform="translate(59.542 41.356)" fill="#dce0ed"/>
    <circle id="Ellipse_44" data-name="Ellipse 44" cx="3.832" cy="3.832" r="3.832" transform="translate(62.096 43.911)" fill="#65617d"/>
    <path id="Path_160" data-name="Path 160" d="M557.818,341.982l-3.906-.17-3.567-6.624-12.569-1.019-6.115,7.983.34,2.208-.849,2.038-39.914.34v-1.019H490.9l-.34-1.529h3.057l-2.208-2.378-7.813-6.624s-13.418.34-13.588,0a21.7,21.7,0,0,1,.764-3.822l5.775-1.7,19.7-1.529a45.234,45.234,0,0,1,8.238-10.106H555.1l2.378,12.229v.029Z" transform="translate(-414.026 -296.434)" fill="#444053"/>
    <path id="Path_161" data-name="Path 161" d="M923.031,444.181s5.1-9.511,9-9.511h9.511a4.116,4.116,0,0,1,3.4,1.868l3.906,7.643H945.79s-2.548-7.134-5.435-7.3-7.813,0-7.813,0a3.291,3.291,0,0,0-2.717,2.038,62.041,62.041,0,0,1-4.465,6.478S921.672,446.559,923.031,444.181Z" transform="translate(-807.434 -397.783)" fill="#33323d"/>
    <path id="Path_162" data-name="Path 162" d="M1071.2,342.351h-6.389l-.066,5.1,6.455-1.529Z" transform="translate(-925.205 -297.482)" fill="#33323d"/>
    <path id="Path_163" data-name="Path 163" d="M452,442.974a4.828,4.828,0,0,1,2.718-3.567l15.626-.849s2.548.17,3.906,3.4l4.416,6.624V449.6H473.74s-2.378-9-9.172-8.662h-8.153s-1.868,0-2.548,3.057Z" transform="translate(-398.397 -401.162)" fill="#33323d"/>
    <path id="Path_164" data-name="Path 164" d="M731.926,313.423h52.143a1.868,1.868,0,0,0-1.868-1.868H733.794a1.868,1.868,0,0,0-1.868,1.868Z" transform="translate(-641.636 -290.804)" fill="#33323d"/>
    <path id="Path_165" data-name="Path 165" d="M715.054,341.461H700.625a.975.975,0,0,1-.891-1.372l2.283-5.137a4.484,4.484,0,0,1,4.1-2.663h8.767a1.228,1.228,0,0,1,1.228,1.228v6.889A1.054,1.054,0,0,1,715.054,341.461Z" transform="translate(-613.59 -308.821)" fill="#00b9ff" opacity="0.3"/>
    <rect id="Rectangle_23" data-name="Rectangle 23" width="14.097" height="9.172" rx="4.586" transform="translate(106.256 23.468)" fill="#00b9ff" opacity="0.3"/>
    <path id="Path_166" data-name="Path 166" d="M945.509,177.034v.029l-21.91.311-.571-12.569h20.1Z" transform="translate(-802.057 -143.205)" fill="#33323d"/>
    <rect id="Rectangle_24" data-name="Rectangle 24" width="16.135" height="9.172" rx="4.586" transform="translate(123.41 23.468)" fill="#00b9ff" opacity="0.3"/>
    <rect id="Rectangle_25" data-name="Rectangle 25" width="5.435" height="1.019" rx="0.51" transform="translate(98.103 35.867)" fill="#33323d"/>
    <rect id="Rectangle_26" data-name="Rectangle 26" width="5.435" height="1.019" rx="0.51" transform="translate(113.729 35.867)" fill="#33323d"/>
    <rect id="Rectangle_27" data-name="Rectangle 27" width="6.29" height="6.181" transform="translate(124.735 22.454)" fill="#fff"/>
    <path id="Path_167" data-name="Path 167" d="M1009.457,332.358v-.689a1.987,1.987,0,0,1-1.044-.3l.164-.457a2.108,2.108,0,0,0,1.061.293c.484,0,.812-.28.812-.669s-.266-.607-.771-.812c-.7-.273-1.048-.587-1.048-1.181a1.084,1.084,0,0,1,.992-1.1v-.689h.345v.662a1.821,1.821,0,0,1,.887.239l-.171.45a1.482,1.482,0,0,0-.821-.232c-.526,0-.646.314-.646.587,0,.355.175.532.768.778.7.287,1.136.641,1.136,1.249a1.187,1.187,0,0,1-1.078,1.16v.71Z" transform="translate(-881.887 -304.012)" fill="#636780"/>
    <path id="Path_168" data-name="Path 168" d="M372.193,469.428c-.812.883-1.41,1.231-1.382.3.085-2.818-4.866-15.559-4.866-15.559l1.465-.111A37.983,37.983,0,0,1,372.193,469.428Z" transform="translate(-323.621 -414.629)" fill="none"/>
    <path id="Path_169" data-name="Path 169" d="M373.5,571.544a7.045,7.045,0,0,1-14.064.6c-.01-.114-.018-.229-.021-.345V571.8q-.005-.127-.005-.254a7.045,7.045,0,0,1,14.09,0Z" transform="translate(-317.942 -510.598)" fill="#65617d"/>
    <circle id="Ellipse_45" data-name="Ellipse 45" cx="3.843" cy="3.843" r="3.843" transform="translate(44.671 57.104)" fill="#dce0ed"/>
    <circle id="Ellipse_46" data-name="Ellipse 46" cx="2.306" cy="2.306" r="2.306" transform="translate(46.208 58.641)" fill="#65617d"/>
    <path id="Path_170" data-name="Path 170" d="M159.518,481.839l-16.965.342v-2.5c.152-2.013,2.216-2.719,4.1-2.94a11.766,11.766,0,0,1,4.383.329,30.082,30.082,0,0,0,7.022,1.155,1.077,1.077,0,0,1,1.042.876c.054.286.107.6.156.905.038.241.073.478.106.7C159.455,481.342,159.518,481.839,159.518,481.839Z" transform="translate(-129.506 -434.271)" fill="#65617d"/>
    <path id="Path_171" data-name="Path 171" d="M132.491,476.032H97.25a1.387,1.387,0,0,1-1.285-.831.964.964,0,0,1,.5-1.277A3.993,3.993,0,0,0,98.2,471.8a21.1,21.1,0,0,0,.887-5.561c.149-2.807,1.165-4.195,2.263-4.867h0a4.481,4.481,0,0,1,2.973-.542l14.289.114a2.747,2.747,0,0,1,.7.455c1.273,1.185-.583,2.733-.583,2.733a6.7,6.7,0,0,0-.968,8.482h7.312a6.729,6.729,0,0,0,3.83-1.172,3.826,3.826,0,0,0,1.518-1.743c.113-.306.227-.611.364-.906,1.918-4.16-.4-10.926-1.394-13.456-.248-.629-.414-1-.414-1l2.293-.173,1.45-.11h.015a37.982,37.982,0,0,1,4.783,15.371c.038.4.068.779.093,1.147a5.125,5.125,0,0,1-5.119,5.457Z" transform="translate(-88.945 -414.63)" fill="#00b9ff"/>
    <path id="Path_172" data-name="Path 172" d="M159.362,502.849H142.553v-.7h16.7C159.294,502.39,159.33,502.628,159.362,502.849Z" transform="translate(-129.506 -456.419)" opacity="0.1"/>
    <path id="Path_173" data-name="Path 173" d="M155.633,505.919H137.807a.337.337,0,0,1-.135-.027,4.481,4.481,0,0,1,2.973-.542l14.289.114A2.748,2.748,0,0,1,155.633,505.919Z" transform="translate(-125.265 -459.148)" opacity="0.1"/>
    <rect id="Rectangle_28" data-name="Rectangle 28" width="24.91" height="0.699" rx="0.35" transform="translate(5.956 45.901)" fill="#dce0ed"/>
    <path id="Path_174" data-name="Path 174" d="M372.193,469.428c-.812.883-1.41,1.231-1.382.3.085-2.818-4.866-15.559-4.866-15.559l1.465-.111A37.983,37.983,0,0,1,372.193,469.428Z" transform="translate(-323.621 -414.629)" opacity="0.1"/>
    <path id="Path_175" data-name="Path 175" d="M373.492,570.772c-.841.2-1.881.406-3.164.594q-.715.105-1.534.2c-1.309.155-2.823.291-4.572.4q-.743.045-1.543.081-1.5.068-3.208.1l-.021-.345V571.8c1.593-.643,4.1-2.359,4.5-6.827a7.049,7.049,0,0,1,9.54,5.8Z" transform="translate(-317.976 -510.598)" opacity="0.1"/>
    <path id="Path_176" data-name="Path 176" d="M349.318,534.214s8.087-.876,5.3-13.2c0,0,4,3.663,6.482,5.7s6.915,4.843,6.915,4.843S365.372,534.029,349.318,534.214Z" transform="translate(-309.172 -472.812)" fill="#00b9ff"/>
    <path id="Path_177" data-name="Path 177" d="M349.318,534.214s8.087-.876,5.3-13.2c0,0,4,3.663,6.482,5.7s6.915,4.843,6.915,4.843S365.372,534.029,349.318,534.214Z" transform="translate(-309.172 -472.812)" fill="#fff" opacity="0.1"/>
    <circle id="Ellipse_47" data-name="Ellipse 47" cx="7.045" cy="7.045" r="7.045" transform="translate(11.496 53.901)" fill="#65617d"/>
    <circle id="Ellipse_48" data-name="Ellipse 48" cx="3.843" cy="3.843" r="3.843" transform="translate(14.698 57.104)" fill="#dce0ed"/>
    <circle id="Ellipse_49" data-name="Ellipse 49" cx="2.306" cy="2.306" r="2.306" transform="translate(16.235 58.641)" fill="#65617d"/>
    <path id="Path_178" data-name="Path 178" d="M137.732,547.493a8.072,8.072,0,1,0-16.14,0c0,.192.007.382.02.571h16.1C137.725,547.875,137.732,547.685,137.732,547.493Z" transform="translate(-111.292 -488.662)" opacity="0.1"/>
    <path id="Path_179" data-name="Path 179" d="M139.414,548.432a7.773,7.773,0,1,0-15.542,0c0,.185.007.368.019.55h15.5C139.407,548.8,139.414,548.617,139.414,548.432Z" transform="translate(-113.273 -489.743)" fill="#00b9ff"/>
    <path id="Path_180" data-name="Path 180" d="M139.414,548.433c0,.127,0,.254-.009.379,0,.057-.006.114-.009.171h-15.5c0-.057-.007-.114-.009-.171-.006-.125-.009-.252-.009-.379a7.773,7.773,0,1,1,15.542,0Z" transform="translate(-113.273 -489.745)" fill="#fff" opacity="0.1"/>
    <path id="Path_181" data-name="Path 181" d="M139.468,603.919c0,.057-.006.114-.009.171h-15.5c0-.057-.007-.114-.009-.171Z" transform="translate(-113.336 -544.851)" opacity="0.1"/>
    <ellipse id="Ellipse_50" data-name="Ellipse 50" cx="1.023" cy="2.576" rx="1.023" ry="2.576" transform="matrix(0.911, -0.412, 0.412, 0.911, 44.129, 43.082)" opacity="0.1"/>
    <ellipse id="Ellipse_51" data-name="Ellipse 51" cx="1.023" cy="2.576" rx="1.023" ry="2.576" transform="matrix(0.911, -0.412, 0.412, 0.911, 44.215, 42.997)" fill="#dce0ed"/>
    <path id="Path_182" data-name="Path 182" d="M352.193,454.063V455.4h-2.6a4.489,4.489,0,0,1-.724-.058c-.248-.629-.414-1-.414-1l2.293-.173Z" transform="translate(-308.419 -414.635)" opacity="0.1"/>
    <path id="Path_183" data-name="Path 183" d="M332.281,409.93h-2.6a3.992,3.992,0,0,1-4.142-3.823v-.355a3.992,3.992,0,0,1,4.142-3.823l2.6.236Z" transform="translate(-288.506 -369.335)" fill="#00b9ff"/>
    <path id="Path_184" data-name="Path 184" d="M325.726,418.632a1.558,1.558,0,0,1,.662,2.242s-1.1,1.8-2.829,1.633l-.63-3.875A13.1,13.1,0,0,1,325.726,418.632Z" transform="translate(-286.242 -383.773)" fill="#00b9ff"/>
    <path id="Path_185" data-name="Path 185" d="M325.127,418.59a1.657,1.657,0,0,1,1.265.668,1.365,1.365,0,0,1-.005,1.649s-1.1,1.8-2.829,1.633l-.63-3.875A19.265,19.265,0,0,1,325.127,418.59Z" transform="translate(-286.241 -383.806)" opacity="0.1"/>
    <path id="Path_186" data-name="Path 186" d="M333.358,250.506h0a2.092,2.092,0,0,1,2.092,2.092v3.579a2.092,2.092,0,0,1-2.092,2.092h0v-7.763Z" transform="translate(-289.668 -217.674)" opacity="0.1"/>
    <path id="Path_187" data-name="Path 187" d="M334.009,250.506h0A2.092,2.092,0,0,1,336.1,252.6v3.579a2.092,2.092,0,0,1-2.092,2.092h0Z" transform="translate(-290.234 -217.674)" fill="#dce0ed"/>
    <ellipse id="Ellipse_52" data-name="Ellipse 52" cx="1.73" cy="2.105" rx="1.73" ry="2.105" transform="translate(34.777 34.769)" fill="#00b9ff"/>
    <path id="Path_188" data-name="Path 188" d="M137.953,355.6l.756,1.684,1.264-1.684" transform="translate(-119.873 -308.992)" fill="none" stroke="#000" stroke-miterlimit="10" stroke-width="1"/>
    <rect id="Rectangle_29" data-name="Rectangle 29" width="6.165" height="6.059" transform="translate(15.688 48.359)" fill="#fff"/>
    <path id="Path_189" data-name="Path 189" d="M177.121,529.863v-.676a1.948,1.948,0,0,1-1.024-.294l.161-.448a2.065,2.065,0,0,0,1.04.288c.475,0,.8-.274.8-.656s-.261-.6-.756-.8c-.682-.268-1.027-.575-1.027-1.157a1.063,1.063,0,0,1,.972-1.077v-.676h.338v.649a1.785,1.785,0,0,1,.87.234l-.167.441a1.453,1.453,0,0,0-.8-.227c-.515,0-.633.308-.633.575,0,.348.171.522.753.763.689.281,1.113.629,1.113,1.224a1.164,1.164,0,0,1-1.057,1.137v.7Z" transform="translate(-158.654 -475.729)" fill="#636780"/>
    <rect id="Rectangle_30" data-name="Rectangle 30" width="0.917" height="14.154" transform="translate(6.684 32.343)" fill="#dce0ed"/>
    <path id="Path_190" data-name="Path 190" d="M49.684,400a27.685,27.685,0,0,0-4.063.393,9.7,9.7,0,0,1-2.621.131v3.67a8.359,8.359,0,0,1,3.408-.131c1.18.393,3.67-.524,3.67-.524Z" transform="translate(-43 -367.658)" fill="#dce0ed"/>
  </g>
</svg>
